<svg width="51" height="51" viewBox="0 0 51 51" fill="none" xmlns="http://www.w3.org/2000/svg">
<path d="M27.7536 4.78128C27.1559 4.18372 26.3453 3.84802 25.5001 3.84802C24.6549 3.84802 23.8442 4.18372 23.2465 4.78128L2.05919 25.9654C1.911 26.1136 1.79346 26.2895 1.71327 26.4831C1.63307 26.6767 1.5918 26.8842 1.5918 27.0938C1.5918 27.3033 1.63307 27.5108 1.71327 27.7045C1.79346 27.8981 1.911 28.074 2.05919 28.2222C2.35845 28.5214 2.76434 28.6895 3.18756 28.6895C3.39712 28.6895 3.60463 28.6483 3.79823 28.5681C3.99184 28.4879 4.16775 28.3703 4.31593 28.2222L25.5001 7.03484L46.6842 28.2222C46.9834 28.5214 47.3893 28.6895 47.8126 28.6895C48.2358 28.6895 48.6417 28.5214 48.9409 28.2222C49.2402 27.9229 49.4083 27.517 49.4083 27.0938C49.4083 26.6706 49.2402 26.2647 48.9409 25.9654L41.4376 18.4652V7.96878C41.4376 7.54609 41.2696 7.14071 40.9708 6.84183C40.6719 6.54294 40.2665 6.37503 39.8438 6.37503H36.6563C36.2336 6.37503 35.8282 6.54294 35.5294 6.84183C35.2305 7.14071 35.0626 7.54609 35.0626 7.96878V12.0902L27.7536 4.78128Z" fill="#8FA39A"/>
<path d="M25.5 10.4965L44.625 29.6215V43.0313C44.625 44.2993 44.1213 45.5155 43.2246 46.4121C42.3279 47.3088 41.1118 47.8125 39.8438 47.8125H11.1562C9.88818 47.8125 8.67205 47.3088 7.7754 46.4121C6.87874 45.5155 6.375 44.2993 6.375 43.0313V29.6215L25.5 10.4965Z" fill="#8FA39A"/>
</svg>
