<svg width="51" height="51" viewBox="0 0 51 51" fill="none" xmlns="http://www.w3.org/2000/svg">
<path d="M10.625 44.625C9.45625 44.625 8.45608 44.2092 7.6245 43.3776C6.79292 42.546 6.37642 41.5452 6.375 40.375V19.125C6.375 17.9563 6.7915 16.9561 7.6245 16.1245C8.4575 15.2929 9.45767 14.8764 10.625 14.875H14.875V10.625C14.875 9.45625 15.2915 8.45608 16.1245 7.6245C16.9575 6.79292 17.9577 6.37642 19.125 6.375H31.875C33.0438 6.375 34.0446 6.7915 34.8776 7.6245C35.7106 8.4575 36.1264 9.45767 36.125 10.625V23.375H40.375C41.5438 23.375 42.5446 23.7915 43.3776 24.6245C44.2106 25.4575 44.6264 26.4577 44.625 27.625V40.375C44.625 41.5438 44.2092 42.5446 43.3776 43.3776C42.546 44.2106 41.5452 44.6264 40.375 44.625H27.625V36.125H23.375V44.625H10.625ZM10.625 40.375H14.875V36.125H10.625V40.375ZM10.625 31.875H14.875V27.625H10.625V31.875ZM10.625 23.375H14.875V19.125H10.625V23.375ZM19.125 31.875H23.375V27.625H19.125V31.875ZM19.125 23.375H23.375V19.125H19.125V23.375ZM19.125 14.875H23.375V10.625H19.125V14.875ZM27.625 31.875H31.875V27.625H27.625V31.875ZM27.625 23.375H31.875V19.125H27.625V23.375ZM27.625 14.875H31.875V10.625H27.625V14.875ZM36.125 40.375H40.375V36.125H36.125V40.375ZM36.125 31.875H40.375V27.625H36.125V31.875Z" fill="#8FA39A"/>
</svg>
