<svg width="51" height="51" viewBox="0 0 51 51" fill="none" xmlns="http://www.w3.org/2000/svg">
<path fill-rule="evenodd" clip-rule="evenodd" d="M24.4375 6.375C26.5264 6.37516 28.5579 7.05905 30.2217 8.32222C31.8855 9.58539 33.0901 11.3584 33.6515 13.3705L33.762 13.8061L37.7357 12.8138C38.0262 12.7415 38.3286 12.7313 38.6233 12.784C38.9179 12.8368 39.1981 12.9511 39.4454 13.1196C39.6928 13.2882 39.9018 13.507 40.0587 13.7619C40.2156 14.0168 40.3168 14.302 40.3559 14.5988L40.375 14.875V18.7213C41.573 19.8699 42.5548 21.2245 43.2735 22.7205L43.5668 23.375H44.625C45.1455 23.3751 45.6478 23.5662 46.0368 23.912C46.4257 24.2579 46.6742 24.7345 46.7351 25.2514L46.75 25.5V31.875C46.7501 32.2248 46.6638 32.5691 46.4988 32.8775C46.3339 33.186 46.0953 33.4489 45.8044 33.643L45.5749 33.7747L43.0929 35.0179C42.0768 36.9837 40.605 38.6778 38.8004 39.9585L38.25 40.3283V42.5C38.2499 43.0205 38.0588 43.5228 37.713 43.9118C37.3671 44.3007 36.8905 44.5492 36.3736 44.6101L36.125 44.625H29.75C29.2295 44.6249 28.7272 44.4338 28.3382 44.088C27.9493 43.7421 27.7008 43.2655 27.6399 42.7486L27.625 42.5H25.5C25.4999 43.0205 25.3088 43.5228 24.963 43.9118C24.6171 44.3007 24.1405 44.5492 23.6236 44.6101L23.375 44.625H17C16.4795 44.6249 15.9772 44.4338 15.5882 44.088C15.1993 43.7421 14.9508 43.2655 14.8899 42.7486L14.875 42.5V40.3283C13.3399 39.3468 12.0138 38.0717 10.973 36.5761C9.93222 35.0806 9.19722 33.3941 8.81025 31.6136C7.5572 31.2407 6.44898 30.4918 5.63561 29.4682C4.82224 28.4447 4.343 27.1959 4.26275 25.891L4.25 25.5V24.4375C4.2506 23.8959 4.45799 23.3749 4.8298 22.9811C5.20161 22.5873 5.70978 22.3503 6.25046 22.3185C6.79115 22.2868 7.32356 22.4627 7.73889 22.8103C8.15423 23.1579 8.42115 23.651 8.48513 24.1889L8.5 24.4375V25.5C8.5 25.8145 8.568 26.1141 8.69125 26.3819C9.0156 24.4688 9.73915 22.6454 10.8148 21.0304C11.8905 19.4155 13.2942 18.0451 14.9345 17.0085C14.7837 15.6708 14.9171 14.3163 15.3259 13.0337C15.7347 11.7511 16.4097 10.5692 17.3067 9.56544C18.2038 8.56168 19.3027 7.75863 20.5315 7.20884C21.7603 6.65905 23.0913 6.37491 24.4375 6.375ZM34 23.375C33.4364 23.375 32.8959 23.5989 32.4974 23.9974C32.0989 24.3959 31.875 24.9364 31.875 25.5C31.875 26.0636 32.0989 26.6041 32.4974 27.0026C32.8959 27.4011 33.4364 27.625 34 27.625C34.5636 27.625 35.1041 27.4011 35.5026 27.0026C35.9011 26.6041 36.125 26.0636 36.125 25.5C36.125 24.9364 35.9011 24.3959 35.5026 23.9974C35.1041 23.5989 34.5636 23.375 34 23.375ZM24.4375 10.625C23.1504 10.625 21.907 11.0923 20.9385 11.94C19.97 12.7878 19.3422 13.9583 19.1718 15.2341C20.2015 14.995 21.2553 14.8745 22.3125 14.875H29.4886L29.6374 14.8389C29.3854 13.6467 28.7312 12.5773 27.7845 11.8101C26.8377 11.0429 25.6561 10.6245 24.4375 10.625Z" fill="#8FA39A"/>
</svg>
