<svg width="51" height="51" viewBox="0 0 51 51" fill="none" xmlns="http://www.w3.org/2000/svg">
<g clip-path="url(#clip0_157_154)">
<path fill-rule="evenodd" clip-rule="evenodd" d="M17.34 8.5C16.2163 8.50036 15.1127 8.79773 14.1409 9.36197C13.1692 9.92621 12.3638 10.7373 11.8065 11.713L7.57138 19.125H5.1C4.87457 19.125 4.65837 19.2146 4.49896 19.374C4.33955 19.5334 4.25 19.7496 4.25 19.975V20.9844C4.24958 21.3638 4.37613 21.7325 4.6095 22.0317C4.84286 22.3309 5.16962 22.5435 5.53775 22.6355L5.58875 22.6461C4.70143 24.4878 4.36424 26.5464 4.61763 28.5749L6.15825 40.902C6.28672 41.9301 6.78631 42.8758 7.56308 43.5614C8.33986 44.247 9.34032 44.6252 10.3764 44.625H10.625C11.7522 44.625 12.8332 44.1772 13.6302 43.3802C14.4272 42.5832 14.875 41.5022 14.875 40.375H36.125C36.125 41.5022 36.5728 42.5832 37.3698 43.3802C38.1668 44.1772 39.2478 44.625 40.375 44.625H40.6236C41.6597 44.6252 42.6601 44.247 43.4369 43.5614C44.2137 42.8758 44.7133 41.9301 44.8417 40.902L46.3824 28.577C46.6358 26.5485 46.2986 24.4899 45.4113 22.6482L45.4622 22.6355C45.8304 22.5435 46.1571 22.3309 46.3905 22.0317C46.6239 21.7325 46.7504 21.3638 46.75 20.9844V19.975C46.75 19.7496 46.6604 19.5334 46.501 19.374C46.3416 19.2146 46.1254 19.125 45.9 19.125H43.4286L39.1935 11.713C38.6362 10.7373 37.8308 9.92621 36.8591 9.36197C35.8873 8.79773 34.7837 8.50036 33.66 8.5H17.34ZM39.1468 20.196L35.5045 13.821C35.3185 13.4954 35.0498 13.2249 34.7254 13.0368C34.4011 12.8487 34.0328 12.7497 33.6579 12.75H17.3421C16.9672 12.7497 16.5989 12.8487 16.2746 13.0368C15.9502 13.2249 15.6815 13.4954 15.4955 13.821L11.8533 20.196C11.6687 20.5191 11.5722 20.8851 11.5734 21.2572C11.5747 21.6293 11.6737 21.9946 11.8604 22.3164C12.0472 22.6383 12.3152 22.9055 12.6376 23.0913C12.9601 23.277 13.3256 23.3749 13.6978 23.375H37.3023C37.6744 23.3749 38.0399 23.277 38.3624 23.0913C38.6848 22.9055 38.9528 22.6383 39.1396 22.3164C39.3263 21.9946 39.4253 21.6293 39.4266 21.2572C39.4278 20.8851 39.3313 20.5191 39.1468 20.196ZM10.625 31.9579V30.4704C10.6249 30.2863 10.6726 30.1053 10.7635 29.9453C10.8544 29.7852 10.9853 29.6514 11.1434 29.5572C11.3015 29.4629 11.4814 29.4113 11.6654 29.4075C11.8495 29.4037 12.0314 29.4478 12.1933 29.5354L18.02 32.6804C18.8126 33.1096 18.4833 34.3145 17.5823 34.2784L12.665 34.0807C12.117 34.0588 11.5987 33.8259 11.2185 33.4306C10.8383 33.0354 10.6257 32.5084 10.625 31.96V31.9579ZM40.375 30.4704V31.9579C40.3754 32.507 40.1633 33.035 39.7829 33.4312C39.4026 33.8274 38.8837 34.0609 38.335 34.0829L33.4178 34.2784C32.5168 34.3145 32.1853 33.1096 32.98 32.6804L38.8067 29.5354C38.9686 29.4478 39.1505 29.4037 39.3346 29.4075C39.5186 29.4113 39.6985 29.4629 39.8566 29.5572C40.0147 29.6514 40.1456 29.7852 40.2365 29.9453C40.3274 30.1053 40.3751 30.2863 40.375 30.4704Z" fill="#8FA39A"/>
</g>
<defs>
<clipPath id="clip0_157_154">
<rect width="51" height="51" fill="white"/>
</clipPath>
</defs>
</svg>
