<svg width="51" height="51" viewBox="0 0 51 51" fill="none" xmlns="http://www.w3.org/2000/svg">
<path d="M25.2875 6.49998C17.5822 6.57373 8.36356 15.4307 6.65459 17.141C6.47243 17.3233 6.375 17.5688 6.375 17.8266V43.625C6.375 44.1773 6.82272 44.625 7.375 44.625H18.7008C18.9719 44.625 19.2314 44.5149 19.4198 44.32L24.5921 38.9694C24.9761 38.5721 25.6095 38.5616 26.0065 38.9458L31.5842 44.3436C31.7707 44.5241 32.0201 44.625 32.2796 44.625H43.625C44.1773 44.625 44.625 44.1773 44.625 43.625V17.8299C44.625 17.5702 44.5257 17.3225 44.341 17.1399C42.5947 15.4126 33.1276 6.42493 25.2875 6.49998ZM18.4946 40.7929C17.8646 41.4228 16.7875 40.9767 16.7875 40.0858V32.1642C16.7875 31.2733 17.8646 30.8271 18.4946 31.4571L22.4554 35.4179C22.8459 35.8084 22.8459 36.4416 22.4554 36.8321L18.4946 40.7929ZM20.6196 29.3321C19.9896 28.7021 20.4358 27.625 21.3267 27.625H29.2483C30.1392 27.625 30.5854 28.7021 29.9554 29.3321L25.9946 33.2929C25.6041 33.6834 24.9709 33.6834 24.5804 33.2929L20.6196 29.3321ZM33.7875 40.0858C33.7875 40.9767 32.7104 41.4228 32.0804 40.7929L28.1196 36.8321C27.7291 36.4416 27.7291 35.8084 28.1196 35.4179L32.0804 31.4571C32.7104 30.8271 33.7875 31.2733 33.7875 32.1642V40.0858ZM31.875 22.375C31.875 22.9273 31.4273 23.375 30.875 23.375H19.7C19.1477 23.375 18.7 22.9273 18.7 22.375V20.125C18.7 19.5727 19.1477 19.125 19.7 19.125H30.875C31.4273 19.125 31.875 19.5727 31.875 20.125V22.375Z" fill="#8FA39A"/>
</svg>
