<svg xmlns="http://www.w3.org/2000/svg">
    <symbol id="arrow-right" viewBox="0 0 28 8">
        <path d="M27.3536 4.35355C27.5488 4.15829 27.5488 3.84171 27.3536 3.64645L24.1716 0.464466C23.9763 0.269204 23.6597 0.269204 23.4645 0.464466C23.2692 0.659728 23.2692 0.976311 23.4645 1.17157L26.2929 4L23.4645 6.82843C23.2692 7.02369 23.2692 7.34027 23.4645 7.53553C23.6597 7.7308 23.9763 7.7308 24.1716 7.53553L27.3536 4.35355ZM0 4.5H27V3.5H0V4.5Z"/>
    </symbol>

    <symbol id="arrow-bot" viewBox="0 0 28 28">
        <g opacity="0.5">
            <path d="M21.6891 19.25L22.75 18.118L14 8.75L5.25 18.118L6.30547 19.25L14 11.0195L21.6891 19.25Z" fill="#323232"/>
        </g>
    </symbol>

    <symbol id="plus-icon" viewBox="0 0 24 24">
        <path d="M23 11H13V1C13 0.734784 12.8946 0.48043 12.7071 0.292893C12.5196 0.105357 12.2652 0 12 0V0C11.7348 0 11.4804 0.105357 11.2929 0.292893C11.1054 0.48043 11 0.734784 11 1V11H1C0.734784 11 0.48043 11.1054 0.292893 11.2929C0.105357 11.4804 0 11.7348 0 12H0C0 12.2652 0.105357 12.5196 0.292893 12.7071C0.48043 12.8946 0.734784 13 1 13H11V23C11 23.2652 11.1054 23.5196 11.2929 23.7071C11.4804 23.8946 11.7348 24 12 24C12.2652 24 12.5196 23.8946 12.7071 23.7071C12.8946 23.5196 13 23.2652 13 23V13H23C23.2652 13 23.5196 12.8946 23.7071 12.7071C23.8946 12.5196 24 12.2652 24 12C24 11.7348 23.8946 11.4804 23.7071 11.2929C23.5196 11.1054 23.2652 11 23 11Z"/>
    </symbol>

    <symbol id="check-icon" viewBox="0 0 18 18">
        <path d="M3 8.93333L6.98486 13.9698C7.37248 14.4597 8.13383 14.3973 8.4365 13.8508L15 2" stroke="#27B76C" stroke-width="1.75" stroke-linecap="round"/>
    </symbol>

    <symbol id="wizard-right-arrow" viewBox="0 0 24 24">
        <path d="M9.6001 18.4L14.4001 12L9.6001 5.60002" stroke-width="2.4"/>
    </symbol>

    <symbol id="wizard-arrow-bot" viewBox="0 0 18 18">
        <path d="M4 7L8.06296 10.2504C8.61079 10.6886 9.38921 10.6886 9.93704 10.2504L14 7" stroke="#39473F" stroke-width="1.5" stroke-linecap="round"/>
    </symbol>

    <symbol id="wizard-increment" viewBox="0 0 15 8">
        <path d="M13.7998 6.80005L7.3998 2.00005L0.999805 6.80005" stroke-width="2.4"/>
    </symbol>

    <symbol id="wizard-decrement" viewBox="0 0 15 8">
        <path d="M13.7998 1L7.3998 5.8L0.999805 0.999999" stroke-width="2.4"/>
    </symbol>

    <symbol id="question-icon" viewBox="0 0 18 18">
        <path d="M8.13853 0.0387061C5.32603 0.330503 2.86158 1.8598 1.36392 4.24339C-0.759518 7.62191 -0.358736 12.1078 2.3272 15.0293C3.82134 16.6536 5.67056 17.6203 7.89244 17.9368C8.3108 17.9965 9.69244 17.993 10.1249 17.9332C12.3116 17.6309 14.1608 16.6676 15.6514 15.0504C16.8784 13.7215 17.6624 12.0235 17.9366 10.1075C17.9963 9.69261 17.9963 8.30746 17.9366 7.89261C17.687 6.14535 17.0155 4.57738 15.9784 3.3223C14.5088 1.54339 12.526 0.421909 10.2479 0.0844092C9.81548 0.021128 8.56744 -0.00699701 8.13853 0.0387061ZM10.3428 3.28011C11.0073 3.45589 11.5206 3.75121 11.953 4.20824C12.3256 4.60199 12.526 4.9641 12.6807 5.52308C12.7686 5.83949 12.7686 6.743 12.6772 7.06293C12.4768 7.79066 12.0022 8.39886 11.271 8.85941C10.4026 9.40785 10.3217 9.47113 10.2057 9.66097C10.0827 9.87191 10.0194 10.1637 10.0194 10.5399V10.793H9.04908H8.07525L8.09986 10.343C8.15611 9.24964 8.37759 8.77855 9.02095 8.36722C10.0897 7.68871 10.371 7.44613 10.5784 7.02425C10.9581 6.2473 10.6874 5.40707 9.94205 5.06253C9.72056 4.95707 9.6397 4.93949 9.3479 4.92894C8.95064 4.91136 8.69048 4.96058 8.4022 5.10121C8.04712 5.2805 7.794 5.64964 7.74126 6.068L7.71665 6.27543L6.68658 6.28597L5.6565 6.293L5.67408 6.1805C5.68462 6.11722 5.7022 5.96957 5.71626 5.85355C5.74087 5.60394 5.87798 5.15043 6.00103 4.90433C6.44048 4.02894 7.30884 3.4348 8.45494 3.22035C8.65884 3.18167 8.90845 3.17113 9.369 3.17816C9.9104 3.18871 10.051 3.20277 10.3428 3.28011ZM9.4604 12.4383C9.7065 12.5578 9.88931 12.7336 10.0229 12.9797C10.1354 13.1836 10.1424 13.2223 10.1424 13.5176C10.1424 13.8129 10.1354 13.8516 10.0229 14.0555C9.88931 14.3016 9.7065 14.4774 9.4604 14.5969C9.22837 14.7129 8.70103 14.7129 8.469 14.5969C7.96626 14.3508 7.69205 13.8094 7.80103 13.2821C7.8854 12.8883 8.1983 12.5262 8.57447 12.3961C8.8065 12.3153 9.24947 12.3364 9.4604 12.4383Z"/>
    </symbol>
</svg>