<svg width="105" height="90" viewBox="0 0 105 90" fill="none" xmlns="http://www.w3.org/2000/svg">
<path d="M93.2986 27.5566C93.2663 27.3723 93.1971 27.1964 93.0953 27.0395C92.9934 26.8826 92.861 26.7479 92.7058 26.6434C92.5507 26.5389 92.376 26.4667 92.1923 26.4313C92.0086 26.3958 91.8197 26.3978 91.6368 26.4371L77.5567 29.2184C77.4783 29.2375 77.4015 29.2631 77.3273 29.2948C76.9551 29.3299 76.5857 29.3903 76.2217 29.4756L72.4392 30.609H71.9455C71.4171 30.609 70.84 30.1848 69.4633 29.1419L68.6498 28.523C66.7752 27.2217 64.8249 26.0329 62.8091 24.963C61.5923 24.2677 60.4381 23.628 59.7845 23.1969C57.5317 21.6951 53.4781 21.8063 51.5381 22.446C48.9377 23.5588 46.5318 25.0799 44.4112 26.9516C42.3304 27.0893 40.258 27.333 38.202 27.6817C32.8412 28.7594 30.6023 28.2866 30.6023 28.2866L23.1068 26.5692L17.4261 23.788C17.2617 23.7076 17.0832 23.6604 16.9006 23.6491C16.718 23.6377 16.5349 23.6625 16.3619 23.7219C16.1889 23.7813 16.0292 23.8742 15.8921 23.9953C15.755 24.1164 15.643 24.2633 15.5627 24.4277C15.4823 24.592 15.4351 24.7706 15.4238 24.9532C15.4124 25.1358 15.4372 25.3188 15.4966 25.4919C15.556 25.6649 15.6489 25.8245 15.77 25.9617C15.8911 26.0988 16.038 26.2107 16.2024 26.2911L20.9861 28.6343C18.2883 38.612 13.5393 56.0644 13.1013 57.3785C13.0056 57.6671 12.9772 57.9738 13.0182 58.275C13.0592 58.5763 13.1684 58.8642 13.3377 59.1168C14.4015 60.8551 18.7681 61.7659 21.2781 62.1484C21.3475 62.1552 21.4174 62.1552 21.4867 62.1484C21.7231 62.1488 21.9556 62.0891 22.1624 61.9747C22.3692 61.8603 22.5435 61.6952 22.6688 61.4948L24.2123 59.0264C24.3822 59.2051 24.5659 59.3702 24.7616 59.5201C25.417 59.9999 26.1915 60.2906 27.0007 60.3605C27.8099 60.4304 28.6228 60.2768 29.3507 59.9164C29.408 60.198 29.4942 60.473 29.608 60.7369C30.0455 61.6945 30.7009 62.5365 31.5219 63.1957C32.3428 63.8549 33.3066 64.313 34.3361 64.5333C35.4321 64.7873 36.5803 64.6899 37.618 64.2551C37.9043 65.3196 38.4823 66.2828 39.2867 67.0364C40.0089 67.8399 40.9454 68.4204 41.9862 68.7099C43.027 68.9993 44.1288 68.9856 45.1621 68.6704C45.3568 69.1764 45.6581 69.6345 46.0456 70.0137C46.4332 70.3928 46.8978 70.6841 47.408 70.8676C48.0344 71.0834 48.6923 71.1938 49.3548 71.1944C50.8501 71.1493 52.2931 70.6334 53.4781 69.7203C53.8023 70.1689 54.229 70.5337 54.7227 70.7841C55.2635 71.0569 55.8622 71.1952 56.4679 71.1874C57.0794 71.1801 57.6855 71.0721 58.2618 70.8676C58.8934 70.6293 59.4707 70.2665 59.9592 69.8006C60.4478 69.3348 60.8376 68.7754 61.1056 68.1559C62.6827 68.3346 64.2756 68.0058 65.653 67.2172C66.6779 66.4996 67.4166 65.4432 67.7389 64.2343C68.5479 64.3902 69.3822 64.3537 70.1745 64.1279C70.9668 63.902 71.695 63.4931 72.3002 62.9341C72.822 62.4802 73.2381 61.9176 73.5191 61.2858C73.8002 60.6539 73.9395 59.9682 73.9272 59.2767C74.3656 59.2257 74.7985 59.1349 75.2205 59.0055C76.0715 60.785 77.5318 62.2009 79.3367 62.9966C80.5952 63.5753 81.9635 63.8764 83.3487 63.8797C84.4862 63.9052 85.6142 63.6672 86.6445 63.1844C92.4781 60.271 93.4794 52.2541 89.7108 38.6885C88.5357 34.4471 86.4706 32.0761 84.3082 30.7689L92.1791 29.2184C92.3634 29.186 92.5392 29.1169 92.6962 29.015C92.8531 28.9132 92.9878 28.7807 93.0923 28.6256C93.1968 28.4704 93.269 28.2958 93.3044 28.1121C93.3399 27.9284 93.3379 27.7395 93.2986 27.5566ZM52.4142 25.1021C53.9717 24.5806 56.9685 24.678 58.2479 25.5262C58.9432 26.013 60.1252 26.6596 61.4533 27.4036C63.3695 28.4168 65.2267 29.5381 67.0158 30.7619L67.7945 31.346C69.4633 32.6184 70.4784 33.3833 71.9664 33.3833C72.2515 33.3833 78.9613 33.4667 80.5883 40.5241C82.3544 48.1726 82.1458 54.7572 81.4435 55.7723C81.2158 56.0846 80.9247 56.3452 80.5891 56.5369C80.2536 56.7286 79.8813 56.8472 79.4966 56.8848C79.1 56.9174 78.7006 56.8845 78.3146 56.7875C78.9011 55.7855 79.1501 54.6216 79.0249 53.4674C78.8997 52.3131 78.407 51.2297 77.6193 50.3767C76.4025 49.1669 59.9584 35.0798 57.5178 33.2303C54.3611 30.8732 51.858 31.9996 50.0293 33.1886C48.6874 34.0786 46.5945 37.2979 46.0591 38.3756C45.6766 38.9597 43.2361 40.6632 41.4213 40.6076C41.0589 40.6087 40.7035 40.5074 40.396 40.3156C40.0885 40.1237 39.8414 39.8489 39.6831 39.5229C39.6831 39.2169 40.3784 38.2713 40.879 37.583C41.497 36.772 42.0726 35.9295 42.6034 35.059C43.1983 34.1512 43.6661 33.1663 43.994 32.1317C44.1673 31.5228 44.4737 30.9599 44.8909 30.4838C46.4137 28.4257 50.8845 25.6097 52.4142 25.1021ZM20.7775 59.2211C19.0956 58.9683 17.4573 58.4815 15.9103 57.7748C16.9672 54.2009 22.2238 34.8295 23.6561 29.5452L28.8431 30.7411C28.6345 33.8769 28.0783 42.5058 27.1674 45.6973C26.4344 48.1936 25.5044 50.6279 24.3862 52.9772C23.8992 53.6464 23.5365 54.3977 23.3154 55.1952C23.3154 55.2369 23.2528 55.2717 23.225 55.3204L20.7775 59.2211ZM26.4026 57.2881C26.2785 57.2121 26.1718 57.111 26.0892 56.9912C26.0065 56.8715 25.9499 56.7358 25.9228 56.5928C25.9096 56.1044 26.0349 55.6223 26.2844 55.2022C26.8888 55.299 27.4841 55.4455 28.0644 55.6402C28.5708 55.8811 28.9715 56.2991 29.1908 56.8153C28.4538 57.3159 27.2439 57.9348 26.4026 57.2881ZM34.9827 61.8285C34.361 61.7093 33.7765 61.4442 33.2772 61.055C32.778 60.6657 32.3783 60.1635 32.1111 59.5896C31.9742 59.0583 31.9742 58.5009 32.1111 57.9695L35.386 54.6876C36.4151 53.6655 37.3329 53.2205 38.1673 53.297C39.0543 53.5009 39.8503 53.9893 40.434 54.6876C41.6786 55.9253 41.9359 56.4468 39.0851 59.7634L38.5636 60.3684C38.0004 60.9107 36.3386 62.1692 34.9827 61.8285ZM41.2406 65.0478C39.7804 63.5807 40.3158 62.6212 40.5452 62.3361L40.6148 62.2527C40.9207 61.9096 41.2197 61.5689 41.5117 61.2305C42.7772 59.7843 45.0648 57.1977 46.0799 56.1826C47.0951 55.1674 49.0906 54.5347 51.0027 56.4537C52.2891 57.7331 51.7537 58.8804 51.5034 59.235L45.2038 65.5345C44.8284 65.8335 43.104 66.9321 41.2197 65.0478H41.2406ZM48.3258 68.2323C48.1204 68.1242 47.9454 67.9664 47.8167 67.7733C47.688 67.5802 47.6096 67.3579 47.5888 67.1268L53.5545 61.1541C53.6483 61.0367 53.7673 60.9419 53.9028 60.8768C54.0382 60.8116 54.1865 60.7778 54.3368 60.7778C54.487 60.7778 54.6354 60.8116 54.7708 60.8768C54.9062 60.9419 55.0252 61.0367 55.119 61.1541C56.2315 62.2596 55.7309 63.24 55.5709 63.4555C54.9203 64.4214 54.1925 65.3329 53.3946 66.1812C50.8845 68.6704 49.3618 68.5869 48.3049 68.2323H48.3258ZM57.4274 68.2323C56.1759 68.6495 55.7795 68.2323 55.6544 67.9194V67.8708C56.1464 67.3365 56.6105 66.7771 57.045 66.1951L58.4982 67.2102C58.27 67.6718 57.8821 68.035 57.4066 68.2323H57.4274ZM72.1959 56.4537H72.1333L61.6549 47.9362C61.3674 47.764 61.0274 47.7015 60.6975 47.7601C60.3676 47.8187 60.0699 47.9945 59.8592 48.2551C59.6485 48.5156 59.539 48.8435 59.5509 49.1784C59.5627 49.5133 59.6951 49.8327 59.9236 50.0777L71.0903 59.1863H71.132C71.1362 59.2023 71.1362 59.219 71.132 59.235C71.144 59.56 71.0798 59.8833 70.9446 60.1791C70.8094 60.4749 70.6069 60.7349 70.3533 60.9385C69.4355 61.8633 67.718 61.3974 67.273 61.2584L56.8434 54.3052C56.5371 54.1011 56.1624 54.0267 55.8013 54.0984C55.4403 54.1701 55.1224 54.382 54.9174 54.6876C54.8155 54.84 54.7448 55.0109 54.7093 55.1907C54.6737 55.3704 54.674 55.5555 54.7102 55.7351C54.7464 55.9147 54.8177 56.0854 54.9201 56.2374C55.0225 56.3893 55.1539 56.5196 55.3067 56.6206L65.1454 63.1774C65.0173 63.8533 64.6432 64.4578 64.0955 64.874C63.0734 65.5693 61.1265 65.3816 60.4798 65.2564L58.3939 63.8171C58.6218 63 58.6169 62.1354 58.3798 61.3209C58.1427 60.5064 57.6828 59.7744 57.052 59.2072C56.4029 58.5175 55.5207 58.0937 54.5766 58.0182C54.5063 56.6906 53.9199 55.443 52.9427 54.5416C50.2588 51.8508 46.6153 51.7604 44.0913 54.2705C43.9801 54.3748 43.8619 54.4999 43.7298 54.639C43.3984 53.9423 42.9411 53.3129 42.3809 52.7825C41.3656 51.6411 39.9926 50.8786 38.4871 50.6201C36.7488 50.4045 35.0106 51.1277 33.3766 52.7825L31.2559 54.8684C30.7115 54.0027 29.8907 53.3461 28.9266 53.005C28.4909 52.8563 28.0476 52.7309 27.5985 52.6295C28.4726 50.6334 29.2158 48.5826 29.8235 46.4899C30.797 43.0968 31.3671 34.6696 31.5618 31.193C33.9743 31.2139 36.3815 30.962 38.7374 30.4421C39.6274 30.2613 40.7816 30.1153 41.8524 29.9971C41.622 30.4163 41.4379 30.8592 41.3031 31.3182C41.0463 32.1395 40.6766 32.9211 40.2045 33.6405C39.7181 34.4341 39.1912 35.2023 38.6262 35.942C37.4024 37.5969 36.2552 39.1544 37.2356 40.9135C37.6572 41.7045 38.2962 42.3585 39.0772 42.7983C39.8583 43.2381 40.7488 43.4454 41.6438 43.3958C44.6267 43.2984 47.8947 40.9205 48.5205 39.648C49.1463 38.3756 50.9471 35.9073 51.5729 35.4762C53.0887 34.468 54.1664 34.1829 55.8352 35.4344C58.1088 37.1658 74.5252 51.2111 75.6377 52.3444C76.02 52.8125 76.2289 53.3984 76.2289 54.0028C76.2289 54.6072 76.02 55.193 75.6377 55.6611C74.4348 56.857 72.2167 56.4537 72.1959 56.4537ZM87.0408 39.4116C89.3145 47.6024 90.8789 57.9417 85.4068 60.6812C84.6256 60.9866 83.7892 61.1258 82.9512 61.0899C82.1132 61.0539 81.2919 60.8437 80.5396 60.4726C80.0776 60.2597 79.6433 59.9912 79.2463 59.673C79.3437 59.673 79.441 59.673 79.5453 59.673C80.33 59.6173 81.094 59.3957 81.7867 59.023C82.4795 58.6502 83.0853 58.1348 83.5642 57.5106C85.3651 55.2648 84.8019 46.622 83.2513 39.8984C82.9346 38.2426 82.2496 36.6793 81.247 35.3241C80.2445 33.9689 78.95 32.8564 77.4594 32.0691C79.1629 31.798 84.8297 31.5268 87.0408 39.4116Z" fill="#00B56A"/>
<path d="M98 45C98 69.8528 77.8528 90 53 90C28.1472 90 8 69.8528 8 45C8 20.1472 28.1472 0 53 0C77.8528 0 98 20.1472 98 45ZM10.8099 45C10.8099 68.301 29.699 87.1901 53 87.1901C76.301 87.1901 95.1901 68.301 95.1901 45C95.1901 21.699 76.301 2.80986 53 2.80986C29.699 2.80986 10.8099 21.699 10.8099 45Z" fill="#00B56A"/>
</svg>
