<svg width="105" height="90" viewBox="0 0 105 90" fill="none" xmlns="http://www.w3.org/2000/svg">
<path d="M52.4109 84.75C41.8921 84.75 32.0062 80.655 24.57 73.2159C12.4143 61.0631 9.52589 42.6328 17.3868 27.3609C18.0984 25.98 19.7915 25.4372 21.1753 26.1459C22.559 26.8547 23.1018 28.5506 22.3903 29.9344C15.6515 43.0238 18.1265 58.8188 28.5468 69.2391C34.92 75.615 43.394 79.125 52.4109 79.125C61.4249 79.125 69.9018 75.615 76.275 69.2391C82.6481 62.8631 86.1609 54.3891 86.1609 45.375C86.1609 36.3581 82.6509 27.8841 76.275 21.5109C69.899 15.1378 61.4278 11.625 52.4109 11.625C43.394 11.625 34.92 15.1378 28.5468 21.5109C27.4471 22.6106 25.6696 22.6106 24.57 21.5109C23.4703 20.4112 23.4703 18.6337 24.57 17.5341C32.0062 10.0978 41.8921 6 52.4109 6C62.9296 6 72.8184 10.0978 80.2518 17.5341C87.6909 24.9703 91.7859 34.8563 91.7859 45.375C91.7859 55.8909 87.6909 65.7797 80.2518 73.2159C72.8184 80.655 62.9296 84.75 52.4109 84.75Z" fill="#00B56A"/>
<path d="M66.4738 59.4375C65.8578 59.4375 65.2391 59.2378 64.7187 58.8216L50.6562 47.5716C49.9897 47.0372 49.6016 46.23 49.6016 45.375V22.875C49.6016 21.3225 50.8616 20.0625 52.4141 20.0625C53.9666 20.0625 55.2266 21.3225 55.2266 22.875V44.025L68.2344 54.4284C69.4466 55.4016 69.6434 57.1706 68.6731 58.3828C68.1162 59.0747 67.3006 59.4375 66.4738 59.4375Z" fill="#00B56A"/>
</svg>
