<svg width="105" height="90" viewBox="0 0 105 90" fill="none" xmlns="http://www.w3.org/2000/svg">
<path d="M73.7262 58.8147C71.1231 57.9082 66.8697 57.6293 65.0104 56.9088C63.7088 56.3975 61.6402 55.8629 60.9895 55.0494C60.3154 54.2592 60.3154 48.5184 60.3154 48.5184C60.3154 48.5184 61.9424 47.0076 62.6164 45.3109C63.2904 43.6143 63.732 39.0123 63.732 39.0123C63.732 39.0123 63.8715 39.0588 64.0807 39.0588C64.5688 39.0588 65.452 38.7334 65.8703 36.5951C66.3816 33.9688 67.3578 32.5975 67.1021 30.6684C66.9162 29.3668 66.3584 29.1576 66.033 29.1576C65.8703 29.1576 65.7541 29.2041 65.7541 29.2041C65.7541 29.2041 67.0789 27.2518 67.0789 20.6045C67.0789 13.7713 61.8029 7.03105 52.0645 7.00781C42.3027 7.03105 37.05 13.7713 37.05 20.6045C37.05 27.2285 38.3748 29.2041 38.3748 29.2041C38.3748 29.2041 38.2586 29.1576 38.0959 29.1576C37.7473 29.1576 37.1895 29.3668 37.0268 30.6684C36.7711 32.5975 37.724 33.992 38.2586 36.5951C38.677 38.7334 39.5602 39.0588 40.0482 39.0588C40.2574 39.0588 40.3969 39.0123 40.3969 39.0123C40.3969 39.0123 40.8385 43.6375 41.5125 45.3109C42.1865 47.0076 43.8135 48.5184 43.8135 48.5184C43.8135 48.5184 43.8135 54.2592 43.1395 55.0494C42.4654 55.8397 40.4201 56.3975 39.1186 56.9088C37.2592 57.6293 33.0059 57.9082 30.4027 58.8147C27.7996 59.7211 19.7578 63.5096 19.7578 73.9686H84.3711C84.3711 63.5096 76.3525 59.7211 73.7262 58.8147ZM26.7537 65.5084C28.892 63.2539 31.3092 62.301 31.5881 62.208C32.6107 61.8594 34.2842 61.5805 35.7484 61.3481C37.4916 61.0924 39.1186 60.8367 40.3969 60.3486C40.6293 60.2557 40.9314 60.1395 41.2568 60.0232C42.907 59.4422 44.7664 58.7914 45.9518 57.3969C46.8582 56.3277 47.1836 54.8635 47.3695 51.6561C47.4625 50.0291 47.416 48.5416 47.416 48.4719V46.8682L46.2771 45.7758C46.0215 45.5434 45.1848 44.6137 44.9059 43.9164C44.627 43.2191 44.2551 40.616 44.0924 39.1518C43.8135 36.4789 42.6979 37.8734 41.8379 35.6189C41.373 34.4104 41.1639 32.9693 40.8385 31.8537C40.5131 30.7148 42.326 29.7154 41.9076 28.2977C41.466 26.8799 40.7455 25.067 40.7455 20.5813C40.7455 15.8166 44.3016 10.7498 52.0412 10.7266C59.7809 10.7266 63.3369 15.8166 63.3369 20.5813C63.3369 25.067 62.6164 26.8799 62.1748 28.2977C61.7332 29.7154 63.5693 30.7148 63.2439 31.8537C62.9186 32.9926 62.7094 34.4104 62.2445 35.6189C61.3613 37.8734 60.2689 36.4789 59.99 39.1518C59.8273 40.616 59.4555 43.1959 59.1766 43.9164C58.8977 44.6137 58.0842 45.5434 57.8285 45.7758L56.7129 46.8682V48.4719C56.7129 48.5416 56.6664 50.0291 56.7361 51.6561C56.9221 54.8635 57.2242 56.3277 58.1307 57.3969C59.316 58.7914 61.1754 59.4422 62.8256 60.0232C63.151 60.1395 63.4531 60.2557 63.6855 60.3486C64.9639 60.8367 66.6141 61.0924 68.334 61.3481C69.7982 61.5572 71.4717 61.8361 72.4943 62.208C72.7732 62.301 75.1904 63.2772 77.3287 65.5084C78.7 66.9494 79.6529 68.158 80.1875 70.2498H23.9182C24.4295 68.158 25.3824 66.9727 26.7537 65.5084Z" fill="#00B56A"/>
<path d="M26.0545 55.8398C28.1463 54.7939 30.1916 54.7939 31.7721 54.5848C31.7721 54.5848 32.6553 53.1438 29.75 52.6324C29.75 52.6324 25.7756 51.633 25.3107 51.0752C24.8459 50.5174 25.1248 47.4262 25.1248 47.4262C25.1248 47.4262 30.6797 47.2402 32.8877 45.2879C29.2852 39.8957 31.2143 33.5971 30.4705 27.7168C29.75 21.8598 26.2404 18.1875 19.5234 18.1875C19.5002 18.1875 19.5234 18.1875 19.291 18.1875C12.7832 18.1875 9.43633 21.8598 8.69258 27.74C7.94883 33.6203 10.0871 40.6162 6.3916 45.3344C8.46016 47.1705 13.5734 47.2635 14.1545 47.2635C14.201 47.2635 14.201 47.2635 14.201 47.2635L14.2242 47.2402C14.2242 47.2402 14.4566 50.5406 13.9918 51.0984C13.527 51.6562 12.1557 52.1676 11.226 52.3768C9.18067 52.8184 7.01914 53.5389 5.22949 54.1664C3.43984 54.7707 0 58.3965 0 62.8125H18.6402C19.1516 60.9531 22.6611 57.5598 26.0545 55.8398ZM16.4555 59.0938H5.09004C5.64785 58.1641 6.22891 57.7457 6.53105 57.583C8.18125 57.002 10.1801 56.3977 12.0395 56.0025C12.8297 55.8398 15.4793 55.1426 16.8738 53.4691C17.5711 52.6557 18.2684 51.3773 17.943 46.9613L17.8035 43.6377L14.4799 43.5215H14.2242H14.0848C13.2248 43.5215 12.3648 43.4285 11.5979 43.3123C12.574 40.1514 12.4811 36.758 12.3648 33.6668C12.2951 31.6912 12.2486 29.7389 12.4578 28.0887C12.9924 23.8586 15.0377 21.6738 19.2678 21.6738H19.3143H19.4305C24.0789 21.6738 26.2637 23.8121 26.8215 28.1119C27.0307 29.7621 27.0074 31.575 26.9609 33.4576C26.8912 36.5721 26.8215 39.9887 27.9139 43.382C27.8209 43.4053 27.7512 43.4285 27.6582 43.4518C26.2637 43.7074 25.0551 43.7539 25.0551 43.7539L21.7779 43.8701L21.4758 47.124C21.1039 51.1914 21.7547 52.5859 22.4984 53.4691C22.5217 53.4924 22.5217 53.4924 22.5449 53.5156C21.2201 54.3523 19.9186 55.468 18.7564 56.5371C17.8035 57.3506 17.0598 58.1641 16.4555 59.0938Z" fill="#00B56A"/>
<path d="M85.4816 62.8125H104.122C104.122 58.3965 100.682 54.7707 98.8924 54.1432C97.1027 53.5156 94.918 52.7951 92.8959 52.3535C91.943 52.1443 90.5949 51.633 90.1301 51.0752C89.6652 50.5174 89.8977 47.217 89.8977 47.217L89.9209 47.2402C89.9209 47.2402 89.9441 47.2402 89.9674 47.2402C90.5484 47.2402 95.685 47.1705 97.7535 45.3111C94.058 40.593 96.1731 33.5971 95.4293 27.7168C94.6856 21.8598 91.3387 18.1875 84.8309 18.1875C84.5984 18.1875 84.5984 18.1875 84.5984 18.1875C77.8814 18.1875 74.3486 21.8598 73.6281 27.74C72.8844 33.6203 74.8135 39.9189 71.2109 45.3111C73.4189 47.2635 78.9738 47.4494 78.9738 47.4494C78.9738 47.4494 79.2527 50.5406 78.7879 51.0984C78.323 51.6562 74.3486 52.6557 74.3486 52.6557C71.4434 53.167 72.3266 54.608 72.3266 54.608C73.907 54.8172 75.9756 54.8172 78.0441 55.8631C81.4607 57.5598 84.9703 60.9531 85.4816 62.8125ZM85.3887 56.5139C84.2266 55.4447 82.925 54.3291 81.6002 53.4924C81.6234 53.4691 81.6234 53.4691 81.6467 53.4459C82.3904 52.5395 83.0412 51.1449 82.6693 47.1008L82.3672 43.8469L79.09 43.7307C79.09 43.7307 77.8814 43.6842 76.4869 43.4285C76.3939 43.4053 76.301 43.382 76.2313 43.3588C77.3236 39.9887 77.2539 36.5488 77.1842 33.4344C77.1377 31.5518 77.1145 29.7389 77.3236 28.0887C77.8582 23.7889 80.0662 21.6506 84.7147 21.6506H84.8309H84.8773C89.1074 21.6506 91.1295 23.8354 91.6873 28.0654C91.8965 29.7156 91.8268 31.668 91.7803 33.6436C91.6873 36.7348 91.5711 40.1281 92.5473 43.2891C91.7803 43.4053 90.9203 43.4982 90.0604 43.4982H89.9209H89.6652L86.3184 43.5912L86.1789 46.9148C85.8535 51.3541 86.574 52.6092 87.248 53.4227C88.6426 55.0961 91.3154 55.7934 92.0824 55.9561C93.9186 56.3512 95.9406 56.9555 97.5908 57.5365C97.893 57.6992 98.474 58.1176 99.0318 59.0473H87.6664C87.0621 58.1641 86.3184 57.3506 85.3887 56.5139Z" fill="#00B56A"/>
<line x1="10.5018" y1="81.9393" x2="86.5018" y2="5.93934" stroke="#00B56A" stroke-width="3"/>
</svg>
