<svg width="105" height="90" viewBox="0 0 105 90" fill="none" xmlns="http://www.w3.org/2000/svg">
<path d="M30.4 89.4H74.4C79.6 89.4 83.8 85.2 83.8 80V9.4C83.8 4.2 79.6 0 74.4 0H30.4C25.2 0 21 4.2 21 9.4V80.1C21 85.2 25.2 89.4 30.4 89.4ZM24.7 80.1V9.4C24.7 6.3 27.2 3.8 30.3 3.8H74.3C77.4 3.8 79.9 6.3 79.9 9.4V80.1C79.9 83.2 77.4 85.7 74.3 85.7H30.4C27.3 85.7 24.7 83.2 24.7 80.1Z" fill="#00B56A"/>
<path d="M70.1984 30.4C69.9984 26.9 68.8984 23.7 66.7984 20.9C64.5984 18 61.8984 15.9 58.4984 14.6C56.9984 14 55.3984 13.7 53.7984 13.6C52.9984 13.5 52.0984 13.5 51.2984 13.5C48.6984 13.7 46.2984 14.3 43.9984 15.5C39.0984 18.2 35.9984 22.2 34.7984 27.7C34.5984 28.4 34.5984 29.1 34.4984 29.9C34.4984 30 34.4984 30.1 34.3984 30.2C34.3984 31 34.3984 31.8 34.3984 32.6C34.4984 33.1 34.4984 33.5 34.5984 34C34.9984 37 36.1984 39.7 37.9984 42.2C40.5984 45.5 43.8984 47.8 47.9984 48.8C48.8984 49 49.8984 49.1 50.8984 49.3C50.9984 49.3 51.0984 49.3 51.1984 49.4C51.9984 49.4 52.7984 49.4 53.5984 49.4C53.9984 49.3 54.4984 49.3 54.8984 49.2C57.9984 48.8 60.7984 47.6 63.2984 45.6C66.5984 43.1 68.6984 39.8 69.6984 35.8C70.0984 34 70.2984 32.2 70.1984 30.4ZM51.0984 16.1C51.0984 18.4 51.0984 20.7 51.0984 23C49.1984 23 47.2984 23 45.2984 23C45.8984 20.2 49.0984 16.3 51.0984 16.1ZM51.0984 25.5C51.0984 27.1 51.0984 28.6 51.0984 30.2C48.6984 30.2 46.3984 30.2 43.9984 30.2C44.0984 29.5 44.0984 28.8 44.1984 28.1C44.2984 27.3 44.4984 26.5 44.5984 25.7C44.5984 25.5 44.6984 25.4 44.8984 25.4C46.8984 25.4 48.9984 25.4 50.9984 25.4C50.9984 25.5 51.0984 25.5 51.0984 25.5ZM45.5984 17.5C45.2984 17.9 44.9984 18.4 44.7984 18.8C44.0984 20 43.4984 21.4 42.9984 22.7C42.8984 23 42.7984 23 42.4984 23C41.5984 23 40.5984 23 39.6984 23C39.5984 23 39.4984 23 39.2984 23C40.3984 21.1 43.5984 18.2 45.5984 17.5ZM37.6984 26.4C37.7984 26.1 37.8984 25.6 38.0984 25.5C38.2984 25.3 38.6984 25.4 39.0984 25.4C39.9984 25.4 40.8984 25.4 41.8984 25.4C41.9984 25.4 42.0984 25.4 42.1984 25.4C41.9984 27 41.7984 28.5 41.5984 30.1C40.0984 30.1 38.4984 30.1 36.8984 30.1C36.9984 28.9 37.2984 27.7 37.6984 26.4ZM37.9984 37.2C37.3984 35.8 37.0984 34.3 36.9984 32.8C36.9984 32.8 36.9984 32.7 36.9984 32.6C38.5984 32.6 40.0984 32.6 41.6984 32.6C41.8984 34.2 42.0984 35.7 42.2984 37.3C42.0984 37.3 41.7984 37.3 41.5984 37.3C40.5984 37.3 39.4984 37.3 38.4984 37.3C38.1984 37.4 37.9984 37.4 37.9984 37.2ZM39.2984 39.8C39.3984 39.8 39.4984 39.8 39.5984 39.8C40.5984 39.8 41.5984 39.8 42.4984 39.8C42.6984 39.8 42.7984 39.9 42.8984 40.1C43.4984 42 44.2984 43.7 45.4984 45.3C45.4984 45.3 45.4984 45.3 45.4984 45.4C42.9984 44 40.8984 42.2 39.2984 39.8ZM51.0984 46.7C50.1984 46.5 49.4984 46 48.7984 45.5C47.6984 44.6 46.8984 43.4 46.2984 42.2C45.8984 41.5 45.6984 40.8 45.3984 40.1C45.3984 40 45.2984 39.9 45.2984 39.8C47.1984 39.8 49.1984 39.8 51.0984 39.8C51.0984 42.1 51.0984 44.4 51.0984 46.7ZM51.0984 37.3C50.9984 37.3 50.8984 37.3 50.7984 37.3C48.8984 37.3 46.8984 37.3 44.9984 37.3C44.6984 37.3 44.5984 37.2 44.5984 36.9C44.3984 35.6 44.2984 34.2 44.0984 32.9C44.0984 32.8 44.0984 32.7 44.0984 32.6C46.4984 32.6 48.7984 32.6 51.1984 32.6C51.0984 34.2 51.0984 35.8 51.0984 37.3ZM66.7984 25.8C67.2984 27.1 67.5984 28.5 67.7984 30C67.7984 30.1 67.7984 30.2 67.7984 30.3C66.1984 30.3 64.6984 30.3 63.0984 30.3C62.8984 28.7 62.6984 27.1 62.4984 25.6C62.5984 25.6 62.6984 25.6 62.7984 25.6C63.9984 25.6 65.0984 25.6 66.2984 25.6C66.5984 25.4 66.6984 25.5 66.7984 25.8ZM65.3984 23.1C64.8984 23.1 64.4984 23.1 63.9984 23.1C63.3984 23.1 62.7984 23.1 62.1984 23.1C61.8984 23.1 61.7984 23 61.6984 22.7C61.1984 21.1 60.4984 19.6 59.4984 18.1C59.3984 17.9 59.1984 17.7 59.0984 17.5C61.6984 18.8 63.7984 20.6 65.3984 23.1ZM53.5984 16.1C54.2984 16.3 54.8984 16.6 55.4984 17C56.7984 18 57.6984 19.2 58.3984 20.6C58.7984 21.3 59.0984 22.1 59.4984 23C57.4984 23 55.5984 23 53.5984 23C53.5984 20.7 53.5984 18.4 53.5984 16.1ZM53.4984 25.5C53.5984 25.5 53.6984 25.5 53.7984 25.5C55.6984 25.5 57.6984 25.5 59.5984 25.5C59.8984 25.5 59.9984 25.6 59.9984 25.9C60.1984 27.2 60.2984 28.6 60.4984 29.9C60.4984 30 60.4984 30.1 60.4984 30.2C58.0984 30.2 55.7984 30.2 53.3984 30.2C53.4984 28.6 53.4984 27.1 53.4984 25.5ZM53.4984 32.6C55.8984 32.6 58.1984 32.6 60.5984 32.6C60.4984 33.3 60.4984 34 60.3984 34.6C60.2984 35.4 60.0984 36.2 59.9984 37C59.9984 37.2 59.8984 37.3 59.6984 37.3C57.6984 37.3 55.5984 37.3 53.5984 37.3H53.4984C53.4984 35.8 53.4984 34.2 53.4984 32.6ZM55.3984 45.8C54.7984 46.2 54.1984 46.6 53.4984 46.7C53.4984 44.4 53.4984 42.1 53.4984 39.7C55.3984 39.7 57.2984 39.7 59.2984 39.7C58.4984 42.1 57.3984 44.3 55.3984 45.8ZM59.1984 45.3C60.2984 43.7 61.1984 41.9 61.7984 40C61.7984 39.9 61.9984 39.8 62.0984 39.8C63.1984 39.8 64.1984 39.8 65.2984 39.8C65.2984 39.8 65.3984 39.8 65.3984 39.9C63.7984 42.2 61.6984 44 59.1984 45.3ZM67.5984 34.3C67.3984 35.3 67.0984 36.2 66.7984 37.2C66.7984 37.3 66.5984 37.4 66.4984 37.4C65.1984 37.4 63.8984 37.4 62.6984 37.4H62.5984C62.7984 35.8 62.9984 34.3 63.1984 32.7C64.6984 32.7 66.2984 32.7 67.8984 32.7C67.6984 33.2 67.6984 33.7 67.5984 34.3Z" fill="#00B56A"/>
<path d="M32.6016 67.6008H33.4016C35.0016 67.6008 35.7016 66.7008 35.7016 65.1008V63.8008C35.7016 62.2008 34.9016 61.3008 33.4016 61.3008H31.1016V71.3008H32.7016V67.6008H32.6016ZM32.6016 62.8008H33.4016C33.9016 62.8008 34.2016 63.0008 34.2016 63.7008V65.2008C34.2016 65.9008 33.9016 66.1008 33.4016 66.1008H32.7016V62.8008H32.6016Z" fill="#00B56A"/>
<path d="M37.4984 61.3984L35.8984 71.3984H37.2984L37.5984 69.5984H39.4984L39.7984 71.3984H41.3984L39.7984 61.3984H37.4984ZM37.7984 68.1984L38.4984 63.0984L39.1984 68.1984H37.7984Z" fill="#00B56A"/>
<path d="M41.8984 68.4008V69.0008C41.8984 70.6008 42.6984 71.5008 44.1984 71.5008C45.6984 71.5008 46.4984 70.6008 46.4984 69.0008C46.4984 67.9008 46.0984 67.0008 44.7984 65.9008C43.7984 65.0008 43.4984 64.5008 43.4984 63.7008C43.4984 63.0008 43.7984 62.7008 44.2984 62.7008C44.7984 62.7008 45.0984 63.0008 45.0984 63.7008V64.1008H46.5984V63.8008C46.5984 62.2008 45.7984 61.3008 44.2984 61.3008C42.7984 61.3008 41.9984 62.2008 41.9984 63.8008C41.9984 64.9008 42.3984 65.8008 43.6984 66.9008C44.6984 67.8008 44.9984 68.3008 44.9984 69.1008C44.9984 69.8008 44.6984 70.1008 44.1984 70.1008C43.6984 70.1008 43.3984 69.8008 43.3984 69.1008V68.4008H41.8984Z" fill="#00B56A"/>
<path d="M47.2031 68.4008V69.0008C47.2031 70.6008 48.0031 71.5008 49.5031 71.5008C51.0031 71.5008 51.8031 70.6008 51.8031 69.0008C51.8031 67.9008 51.4031 67.0008 50.1031 65.9008C49.1031 65.0008 48.8031 64.5008 48.8031 63.7008C48.8031 63.0008 49.1031 62.7008 49.6031 62.7008C50.1031 62.7008 50.4031 63.0008 50.4031 63.7008V64.1008H51.9031V63.8008C51.9031 62.2008 51.1031 61.3008 49.6031 61.3008C48.1031 61.3008 47.3031 62.2008 47.3031 63.8008C47.3031 64.9008 47.7031 65.8008 49.0031 66.9008C50.0031 67.8008 50.3031 68.3008 50.3031 69.1008C50.3031 69.8008 50.0031 70.1008 49.5031 70.1008C49.0031 70.1008 48.7031 69.8008 48.7031 69.1008V68.4008H47.2031Z" fill="#00B56A"/>
<path d="M52.7969 61.4008V71.4008H54.3969V67.6008H55.0969C56.6969 67.6008 57.3969 66.7008 57.3969 65.1008V63.8008C57.3969 62.2008 56.5969 61.3008 55.0969 61.3008H52.7969V61.4008ZM55.8969 63.8008V65.3008C55.8969 66.0008 55.5969 66.2008 55.0969 66.2008H54.3969V62.8008H55.0969C55.6969 62.8008 55.8969 63.0008 55.8969 63.8008Z" fill="#00B56A"/>
<path d="M58.1016 63.8008V69.0008C58.1016 70.6008 58.9016 71.5008 60.5016 71.5008C62.1016 71.5008 62.9016 70.6008 62.9016 69.0008V63.8008C62.9016 62.2008 62.1016 61.3008 60.5016 61.3008C58.9016 61.3008 58.1016 62.2008 58.1016 63.8008ZM61.3016 63.7008V69.1008C61.3016 69.8008 61.0016 70.1008 60.5016 70.1008C60.0016 70.1008 59.7016 69.8008 59.7016 69.1008V63.7008C59.7016 63.0008 60.0016 62.7008 60.5016 62.7008C61.0016 62.7008 61.3016 63.0008 61.3016 63.7008Z" fill="#00B56A"/>
<path d="M67.1984 71.4H68.7984C68.5984 71 68.5984 70.7 68.5984 70.2V68.7C68.5984 67.7 68.2984 66.9 67.5984 66.6C68.2984 66.3 68.5984 65.6 68.5984 64.6V63.8C68.5984 62.3 67.8984 61.5 66.2984 61.5H63.8984V71.5H65.4984V67.4H65.9984C66.6984 67.4 66.9984 67.7 66.9984 68.7V70.3C67.0984 71 67.0984 71.1 67.1984 71.4ZM67.0984 64.8C67.0984 65.6 66.6984 65.9 66.1984 65.9H65.5984V62.8H66.3984C66.9984 62.8 67.1984 63.1 67.1984 63.8V64.8H67.0984Z" fill="#00B56A"/>
<path d="M72.4031 71.3984V62.7984H74.1031V61.3984H69.2031V62.7984H70.9031V71.3984H72.4031Z" fill="#00B56A"/>
</svg>
