<svg width="64" height="64" viewBox="0 0 64 64" fill="none" xmlns="http://www.w3.org/2000/svg">
<path d="M62.7664 23.625C62.6639 23.4547 62.498 23.332 62.3051 23.2839C62.1122 23.2359 61.9081 23.2664 61.7377 23.3688L55.8002 26.935C55.6397 27.0323 55.5215 27.1861 55.4689 27.3663L54.2039 31.6913C54.1589 31.6713 54.1139 31.65 54.0677 31.6313L36.4664 22.415C36.3345 22.3464 36.1851 22.3186 36.0374 22.335C35.8896 22.3515 35.75 22.4115 35.6364 22.5075C35.5952 22.5425 31.5514 25.9713 28.0964 28.6975C25.8989 30.43 23.8327 29.66 22.8614 29.1013L28.7939 20.95C29.7356 19.6622 30.9929 18.6384 32.4448 17.977C33.8966 17.3157 35.4942 17.039 37.0839 17.1738L46.2089 18.1588C46.3088 18.1696 46.4099 18.1602 46.5061 18.1312C46.6022 18.1022 46.6916 18.0542 46.7689 17.99L52.2252 13.44C52.3642 13.309 52.448 13.1299 52.4595 12.9392C52.4709 12.7485 52.4092 12.5606 52.2869 12.4139C52.1646 12.2672 51.9909 12.1727 51.8012 12.1496C51.6116 12.1266 51.4203 12.1768 51.2664 12.29L46.0539 16.635L37.2264 15.6838C35.0856 15.5015 32.9391 15.962 31.0614 17.0063L18.9802 17.1438L13.7527 12.6513C13.6006 12.5336 13.4092 12.4788 13.2179 12.4982C13.0266 12.5176 12.8501 12.6097 12.7247 12.7556C12.5994 12.9014 12.5349 13.0898 12.5446 13.2819C12.5542 13.4739 12.6372 13.6549 12.7764 13.7875L18.2177 18.4638C18.3537 18.5807 18.5271 18.645 18.7064 18.645H18.7152L28.9502 18.5275C28.4431 18.9956 27.9827 19.5118 27.5752 20.0688L21.1902 28.845C21.0798 28.9983 21.0314 29.1876 21.0546 29.3751C21.0778 29.5626 21.1708 29.7344 21.3152 29.8563C22.6002 30.9488 25.8664 32.3563 29.0202 29.8738C31.8752 27.625 35.1252 24.9013 36.2202 23.975L53.4439 32.985C53.7025 33.089 53.9453 33.2287 54.1652 33.4L54.1827 33.4138C54.8089 33.9076 55.2204 34.624 55.3314 35.4138C55.4714 36.4138 55.1164 37.3238 54.3539 37.9138C54.0106 38.1774 53.6118 38.3595 53.1877 38.4463C50.5202 38.9963 43.9514 36.2913 41.6427 35.1963C41.4627 35.1111 41.2562 35.1008 41.0686 35.1679C40.8811 35.2349 40.7279 35.3737 40.6427 35.5538C40.5575 35.7338 40.5473 35.9403 40.6143 36.1278C40.6814 36.3153 40.8202 36.4685 41.0002 36.5538C41.2827 36.6875 46.6252 39.1925 50.6739 39.8513C50.6064 40.2188 50.2164 42.0338 48.9652 42.8938C48.3077 43.3488 47.5114 43.465 46.5364 43.2475C42.3014 42.3075 37.8452 40.7225 37.8002 40.7075C37.6182 40.6595 37.4249 40.6816 37.2585 40.7694C37.0921 40.8573 36.9648 41.0045 36.9019 41.1818C36.839 41.3591 36.845 41.5536 36.9187 41.7267C36.9925 41.8998 37.1287 42.0388 37.3002 42.1163C37.3439 42.1325 41.4252 43.585 45.5427 44.5563C45.3127 45.5863 44.4752 47.485 41.4289 47.4025C36.9289 47.2525 34.4064 45.4788 34.3814 45.4613C34.2204 45.3652 34.0291 45.3329 33.8455 45.3708C33.6618 45.4087 33.499 45.5141 33.3892 45.6661C33.2794 45.8182 33.2305 46.0058 33.2522 46.1921C33.2739 46.3784 33.3646 46.5498 33.5064 46.6725C33.5939 46.7375 35.2252 47.895 38.1952 48.5187C36.7939 49.6812 34.1289 51.2788 31.2364 49.81C30.0402 49.2013 29.3202 48.8325 28.8889 48.6075C28.884 48.6037 28.8794 48.5995 28.8752 48.595C29.7113 48.0564 30.4937 47.4385 31.2114 46.75C31.279 46.6831 31.333 46.6037 31.3702 46.5163C31.3964 46.4525 32.0214 44.955 31.2827 43.4863C30.7889 42.5025 29.8302 41.8 28.4402 41.3863C28.1127 40.3863 27.1027 38.0037 24.8089 37.5613C24.7208 36.8071 24.4301 36.0909 23.9677 35.4888C23.1077 34.3638 21.7014 33.6325 19.7902 33.2963C19.6027 31.5463 17.2902 29.905 15.9152 29.1963C13.5264 27.97 8.03143 30.2438 5.69393 31.3213L2.41643 27.9C2.35047 27.8214 2.26908 27.7571 2.17728 27.7112C2.08549 27.6653 1.98525 27.6387 1.88277 27.6331C1.78029 27.6275 1.67775 27.643 1.5815 27.6786C1.48524 27.7142 1.39732 27.7692 1.32318 27.8402C1.24904 27.9112 1.19025 27.9966 1.15046 28.0912C1.11067 28.1858 1.09072 28.2876 1.09184 28.3902C1.09297 28.4928 1.11514 28.5941 1.157 28.6878C1.19885 28.7816 1.2595 28.8657 1.33518 28.935L4.37518 32.1163C3.42143 32.9363 2.83768 34.1413 3.37518 35.4238C3.77393 36.375 5.27268 38.1088 6.94018 38.75C7.36152 38.904 7.80258 38.9974 8.25018 39.0275C8.68893 40.5638 9.91893 42.8563 12.1989 43.4913C12.6252 44.9713 14.0277 47.0925 17.1239 47.3288C17.5377 48.795 18.9539 50.7725 22.3202 50.7725C22.4002 50.7725 22.4827 50.7725 22.5639 50.7725C24.3639 50.7225 26.0252 50.1475 27.4027 49.45C27.4602 49.4925 27.5277 49.5363 27.6014 49.5838L27.5939 49.6012L27.7189 49.6575C28.2414 49.9725 29.1239 50.4212 30.5552 51.1488C31.4939 51.6336 32.5349 51.8869 33.5914 51.8875C36.3689 51.8875 38.8102 50.1637 40.0914 48.8112C40.5064 48.8537 40.9327 48.8875 41.3839 48.9025C41.4789 48.9025 41.5739 48.9025 41.6664 48.9025C45.2327 48.9025 46.6477 46.5788 47.0239 44.83C47.1639 44.8413 47.3039 44.85 47.4402 44.85C48.291 44.861 49.1244 44.6077 49.8252 44.125C51.7302 42.8088 52.1452 40.1788 52.1702 40.0075C52.2502 40.0075 52.3314 40.0138 52.4089 40.0138C52.7731 40.0177 53.1366 39.9842 53.4939 39.9138C54.1402 39.782 54.7478 39.504 55.2702 39.1013C55.8513 38.6494 56.3009 38.0503 56.5724 37.366C56.8438 36.6818 56.9272 35.9374 56.8139 35.21C56.6727 34.2163 56.2131 33.2952 55.5039 32.585L56.8227 28.0725L62.5102 24.6575C62.595 24.6067 62.669 24.5397 62.7278 24.4603C62.7867 24.3808 62.8292 24.2905 62.853 24.1945C62.8769 24.0986 62.8815 23.9989 62.8666 23.9011C62.8517 23.8034 62.8177 23.7095 62.7664 23.625ZM4.75018 34.845C4.39268 33.9875 5.29018 33.2075 5.83518 32.9038C8.76518 31.5 12.2102 30.3325 14.1477 30.3325C14.5163 30.3152 14.884 30.3823 15.2227 30.5288C17.0502 31.4663 18.2927 32.8263 18.3064 33.5088C18.3064 33.5913 18.3064 33.7588 17.9552 33.9625L17.5402 34.2C15.5402 35.3463 10.2189 38.39 7.46768 37.345C6.24018 36.875 5.01268 35.46 4.75018 34.845ZM9.79893 38.97C12.9177 38.5638 16.4989 36.5175 18.2839 35.495L18.6914 35.2625C18.9393 35.1253 19.1614 34.946 19.3477 34.7325C22.8127 35.2775 23.2927 37.0688 23.3364 37.82C21.1952 39.205 16.0777 42.16 13.4464 42.16C11.2289 42.1638 10.1952 40.0775 9.80393 38.9738L9.79893 38.97ZM13.8552 43.64C17.3802 43.3663 23.0839 39.765 24.2739 38.9963C25.8614 39.1513 26.6652 40.8713 26.9639 41.7113C25.6102 42.7113 21.1314 45.83 17.7277 45.85H17.6889C15.3377 45.8537 14.3002 44.5638 13.8602 43.6438L13.8552 43.64ZM22.5127 49.265C19.9652 49.355 19.0239 48.1287 18.6764 47.2788C22.4939 46.79 26.8164 43.6988 27.9939 42.8088C28.9739 43.0963 29.6289 43.5425 29.9339 44.14C30.2714 44.7988 30.1152 45.515 30.0302 45.7975C29.3927 46.3975 26.2077 49.17 22.5177 49.2713L22.5127 49.265Z" fill="#00B56A" stroke="#00B56A"/>
</svg>
