<svg width="89" height="89" viewBox="0 0 89 89" fill="none" xmlns="http://www.w3.org/2000/svg">
<path d="M23.2799 76.4844H23.0018C19.3862 76.1784 16.4381 72.8131 14.2687 70.3517L13.6012 69.5313L13.0449 68.9472C11.9742 67.8347 10.6531 66.458 11.2928 64.3164C11.8441 63.0164 12.8262 61.9459 14.074 61.2849C15.0229 60.6376 16.1521 60.3067 17.3003 60.3392C18.5796 60.6869 22.5429 64.2608 23.3217 64.9839C26.5618 67.932 28.314 69.9345 28.5365 70.9358C28.5966 71.1697 28.5907 71.4156 28.5195 71.6463C28.4483 71.8771 28.3146 72.0836 28.1332 72.243C27.7203 72.6641 27.3565 73.1306 27.0485 73.6336C26.242 74.8713 25.1573 76.4844 23.2799 76.4844ZM16.7718 62.4669C16.0348 62.592 13.6985 63.788 13.3509 64.97C13.0867 65.8322 13.476 66.3606 14.5885 67.501L15.2004 68.1406L15.8818 68.9194C17.8009 71.1166 20.4292 74.1064 23.1826 74.3428C23.9196 74.3428 24.462 73.6753 25.2546 72.4794C25.5587 71.9952 25.8931 71.5307 26.2559 71.0888C23.4384 67.8579 20.2558 64.9646 16.7718 62.4669Z" fill="#00B56A"/>
<path d="M19.1358 62.8145C18.9922 62.8146 18.8502 62.7849 18.7186 62.7275C18.587 62.6701 18.4686 62.5861 18.371 62.4808C18.2713 62.3813 18.1923 62.2632 18.1383 62.1331C18.0844 62.0031 18.0566 61.8637 18.0566 61.7229C18.0566 61.5821 18.0844 61.4427 18.1383 61.3126C18.1923 61.1826 18.2713 61.0645 18.371 60.965L19.7616 59.6578C21.4223 58.2488 22.9492 56.6893 24.3229 54.9992C24.8506 51.8401 26.2689 48.8973 28.4113 46.5164C30.7976 44.2945 33.8771 42.9635 37.1305 42.7478L38.1318 42.6366C39.047 42.5715 39.952 42.4035 40.8296 42.1359C41.7656 41.7278 42.6444 41.1996 43.444 40.5645C43.7916 40.3003 44.1671 40.05 44.5287 39.7997C45.1438 39.3967 45.8567 39.1684 46.5915 39.139C47.3263 39.1096 48.0552 39.2803 48.7005 39.6328C49.3504 39.9457 49.895 40.4411 50.2679 41.0585C50.6409 41.6759 50.8259 42.3886 50.8004 43.1094C50.7895 44.485 50.2693 45.8078 49.3402 46.8223C48.2566 47.8357 46.9521 48.5831 45.5299 49.0056C44.7592 49.265 44.0143 49.5955 43.3049 49.993C40.7183 51.5783 40.4402 51.9538 38.1874 54.8463C38.0961 54.9567 37.9839 55.0482 37.8573 55.1153C37.7306 55.1824 37.592 55.2239 37.4493 55.2375C37.3066 55.2511 37.1627 55.2364 37.0257 55.1943C36.8886 55.1522 36.7612 55.0836 36.6508 54.9923C36.5403 54.901 36.4489 54.7888 36.3817 54.6621C36.3146 54.5355 36.2731 54.3969 36.2595 54.2542C36.2459 54.1115 36.2606 53.9675 36.3027 53.8305C36.3448 53.6935 36.4134 53.5661 36.5047 53.4556C37.9321 51.2359 39.8797 49.398 42.1785 48.1017C42.9997 47.6273 43.8662 47.236 44.7651 46.9336C45.8797 46.6159 46.9102 46.0555 47.7827 45.2927C48.3492 44.6619 48.6658 43.8459 48.6727 42.9981C48.6797 42.6914 48.5999 42.389 48.4424 42.1257C48.285 41.8624 48.0563 41.649 47.7827 41.5102C47.4808 41.3273 47.1345 41.2306 46.7815 41.2306C46.4285 41.2306 46.0822 41.3273 45.7802 41.5102C45.4465 41.7327 45.1266 41.983 44.7651 42.2333C43.813 42.9809 42.7654 43.5982 41.6501 44.0689C40.6062 44.4161 39.5218 44.6264 38.4238 44.6947L37.4782 44.792C30.9423 45.6542 28.0637 48.4355 26.4783 55.4442C26.2558 56.4455 24.754 57.9613 21.2774 61.1597L19.8868 62.453C19.7916 62.5598 19.6763 62.6467 19.5474 62.7088C19.4185 62.7708 19.2787 62.8068 19.1358 62.8145Z" fill="#00B56A"/>
<path d="M27.5059 70.0735C27.347 70.0729 27.19 70.0377 27.046 69.9705C26.9019 69.9033 26.7742 69.8056 26.6716 69.6842C26.5787 69.5735 26.5089 69.4453 26.4663 69.3072C26.4236 69.1692 26.409 69.024 26.4233 68.8802C26.4375 68.7364 26.4803 68.5969 26.5493 68.4699C26.6182 68.3429 26.7118 68.2309 26.8245 68.1406C30.3514 65.5795 34.1699 63.4462 38.1998 61.7854L40.0077 60.9371C41.6764 60.1584 43.4008 59.5465 45.0695 58.8651C48.0733 57.7109 50.9102 56.6262 52.3147 55.1939C53.0273 54.1509 53.502 52.964 53.7053 51.7173C54.2059 49.7843 54.7344 47.7818 56.2223 46.6693C56.452 46.5025 56.7379 46.4324 57.0187 46.474C57.2995 46.5156 57.5528 46.6656 57.7242 46.8918C57.8086 47.0049 57.8698 47.1336 57.9043 47.2704C57.9387 47.4072 57.9458 47.5494 57.9252 47.689C57.9045 47.8286 57.8564 47.9627 57.7838 48.0836C57.7111 48.2045 57.6152 48.3099 57.5017 48.3937C56.574 49.494 55.9762 50.8342 55.7773 52.2596C55.5035 53.8761 54.8347 55.3999 53.8305 56.6957C52.0922 58.4618 49.0467 59.6299 45.8205 60.8676C44.1795 61.4934 42.4969 62.1331 40.9116 62.884L39.0759 63.7323C35.2155 65.3223 31.556 67.362 28.1734 69.8093C27.9847 69.9661 27.7509 70.0587 27.5059 70.0735Z" fill="#00B56A"/>
<path d="M30.9278 46.9336C30.7079 46.9343 30.4932 46.8663 30.3137 46.7392C30.1343 46.6121 29.9989 46.4321 29.9266 46.2244C29.3827 44.5031 29.2142 42.6851 29.4325 40.8932C29.6508 39.1012 30.2508 37.3769 31.192 35.8365C33.0357 32.8354 35.5789 30.3256 38.6041 28.5218C39.661 27.8404 40.7735 27.2146 41.8442 26.6027C43.8699 25.5504 45.7847 24.2972 47.5597 22.8619C49.7708 20.929 51.8567 17.7583 51.0363 14.6016C50.9907 14.4147 50.9963 14.2189 51.0526 14.035C51.1088 13.851 51.2136 13.6855 51.3559 13.556C51.4982 13.4266 51.6727 13.3378 51.8612 13.2991C52.0497 13.2604 52.2451 13.2732 52.4269 13.3361C68.1966 19.4827 68.433 19.7747 68.7389 20.1502C69.9488 21.6938 70.0183 25.0591 70.0044 26.0465C70.0044 30.7468 66.8338 34.9186 61.2156 37.8251C60.2144 38.3396 59.1019 38.8124 57.9199 39.3269C55.1386 40.5368 52.1627 41.7883 50.5078 43.7074C50.4169 43.8157 50.3054 43.9049 50.1798 43.9698C50.0542 44.0348 49.9169 44.0742 49.776 44.0858C49.6351 44.0975 49.4933 44.0811 49.3587 44.0376C49.2241 43.9941 49.0995 43.9244 48.992 43.8325C48.8848 43.7406 48.7967 43.6284 48.733 43.5023C48.6693 43.3762 48.6312 43.2387 48.6209 43.0978C48.6105 42.9569 48.6282 42.8154 48.6728 42.6813C48.7174 42.5473 48.7881 42.4234 48.8808 42.3168C50.8555 40.0083 54.1513 38.6038 57.0716 37.3522C58.2119 36.8655 59.2966 36.4066 60.2422 35.9616C63.0235 34.571 67.8072 31.2752 67.8628 26.0743C67.9366 24.5612 67.6902 23.0495 67.1397 21.6382C66.4583 21.2627 63.385 19.9555 53.3169 16.0757C53.2142 17.7174 52.7704 19.3196 52.0137 20.7802C51.2571 22.2408 50.2043 23.5276 48.9225 24.5585C47.0426 26.0917 45.011 27.429 42.8594 28.5496C41.8164 29.1476 40.7317 29.7594 39.7166 30.413C36.9849 32.0333 34.6853 34.29 33.0138 36.9907C32.2345 38.267 31.7327 39.6931 31.541 41.1762C31.3493 42.6593 31.4721 44.1661 31.9013 45.5986C31.9519 45.7327 31.975 45.8755 31.9694 46.0187C31.9638 46.1619 31.9295 46.3025 31.8685 46.4322C31.8076 46.5618 31.7212 46.678 31.6146 46.7737C31.5079 46.8694 31.3832 46.9427 31.2477 46.9893C31.1389 46.9869 31.031 46.9681 30.9278 46.9336Z" fill="#00B56A"/>
<path d="M49.5759 46.9197C49.306 46.922 49.0453 46.8223 48.8458 46.6406C48.6463 46.4588 48.5228 46.2085 48.4999 45.9396C48.4771 45.6707 48.5566 45.4031 48.7226 45.1904C48.8886 44.9776 49.1287 44.8353 49.3951 44.792C56.6681 43.4014 64.4973 39.466 68.0156 35.308C69.3673 33.852 70.5221 32.225 71.4504 30.4686C72.2243 28.7675 72.5222 26.8883 72.3126 25.0313C71.8456 24.9806 71.3815 24.9064 70.922 24.8088C70.2763 24.6767 69.6201 24.6022 68.9612 24.5863C68.6796 24.579 68.4123 24.461 68.2171 24.258C68.0218 24.055 67.9145 23.7832 67.9182 23.5016C67.9255 23.2187 68.043 22.9499 68.2456 22.7525C68.4482 22.5551 68.72 22.4446 69.0029 22.4447C69.779 22.4597 70.5519 22.5482 71.3113 22.7089C71.9514 22.8473 72.6035 22.9218 73.2582 22.9314C73.506 22.9363 73.7446 23.0259 73.9344 23.1853C74.1241 23.3447 74.2536 23.5643 74.3012 23.8075C74.7817 26.3602 74.4561 28.9993 73.3695 31.3586C72.3773 33.3007 71.1233 35.0975 69.6426 36.6986C65.7767 41.2599 57.5998 45.4595 49.7706 46.9058L49.5759 46.9197Z" fill="#00B56A"/>
<path d="M45.4174 50.2155C44.4885 50.2193 43.5601 50.1729 42.6362 50.0765C42.3599 50.038 42.1096 49.8934 41.9384 49.6732C41.7672 49.4531 41.6886 49.1748 41.7194 48.8976C41.7502 48.6205 41.888 48.3662 42.1033 48.189C42.3187 48.0118 42.5946 47.9256 42.8726 47.9488C47.5997 48.2286 52.3406 47.7258 56.904 46.4608C61.799 45.2093 66.1238 43.4571 68.1819 41.8579C71.6778 39.0008 74.3073 35.2251 75.7747 30.9554L74.5232 30.5938C74.0086 30.4269 73.4802 30.2461 73.0491 30.0793C72.9173 30.0285 72.7969 29.9522 72.6947 29.8547C72.5926 29.7572 72.5107 29.6405 72.4538 29.5113C72.397 29.382 72.3662 29.2428 72.3634 29.1016C72.3605 28.9604 72.3856 28.8201 72.4372 28.6886C72.5427 28.4249 72.7475 28.213 73.0075 28.0986C73.2676 27.9842 73.5621 27.9763 73.8279 28.0768C74.2033 28.2297 74.7179 28.3966 75.2185 28.5635C77.0124 29.1615 77.6521 29.3979 77.9997 29.9541C78.1666 30.2879 78.2361 30.6494 77.6938 32.193C77.3005 33.3154 76.836 34.4116 76.3032 35.4749C74.6334 38.6106 72.3266 41.3626 69.5308 43.5544C65.2477 46.8224 53.8863 50.2155 45.4174 50.2155Z" fill="#00B56A"/>
<path d="M35.0993 44.4027H34.8629C34.5858 44.3394 34.3446 44.17 34.1912 43.9307C34.0377 43.6914 33.9843 43.4015 34.0425 43.1233C34.112 42.8034 35.8086 35.1689 40.5645 32.1652L42.8729 30.7745C46.1753 28.9085 49.2584 26.6789 52.065 24.1273C53.0358 22.7023 53.7685 21.1289 54.2343 19.4687C54.2839 19.3247 54.3626 19.1923 54.4655 19.0799C54.5683 18.9674 54.6932 18.8773 54.8323 18.8152C54.9715 18.7495 55.1234 18.7155 55.2773 18.7155C55.4312 18.7155 55.5831 18.7495 55.7223 18.8152L64.372 22.987C64.6089 23.0991 64.7932 23.2984 64.8865 23.5433C65.5182 25.1353 65.6013 26.8923 65.1228 28.5368C64.6443 30.1813 63.6315 31.6195 62.2443 32.6241C60.5125 33.8242 58.6737 34.8623 56.7514 35.7252C53.4695 37.3244 50.3823 38.8402 49.6036 41.1625C49.5598 41.3005 49.4886 41.4282 49.3941 41.5378C49.2997 41.6475 49.1839 41.7369 49.054 41.8006C48.924 41.8643 48.7824 41.9009 48.6379 41.9084C48.4933 41.9158 48.3488 41.8939 48.2129 41.8439C48.0761 41.7985 47.9496 41.7263 47.841 41.6315C47.7324 41.5366 47.6438 41.4211 47.5803 41.2916C47.5169 41.1621 47.4799 41.0213 47.4715 40.8774C47.4631 40.7334 47.4835 40.5892 47.5315 40.4533C48.5884 37.2827 52.2318 35.5027 55.764 33.7783C57.5676 32.9664 59.2943 31.9937 60.9233 30.8719C61.6147 30.39 62.1837 29.7528 62.5846 29.0115C62.9855 28.2701 63.2071 27.4451 63.2317 26.6027C63.2507 25.9593 63.171 25.3167 62.9953 24.6975L55.8475 21.2766C55.3567 22.8674 54.5738 24.3529 53.539 25.657C50.6288 28.3238 47.4289 30.656 43.9993 32.6102L41.7048 34.0008C37.7137 36.5317 36.1423 43.5266 36.1423 43.61C36.0807 43.8389 35.9449 44.041 35.7562 44.1844C35.5674 44.3279 35.3364 44.4046 35.0993 44.4027Z" fill="#00B56A"/>
<path d="M47.2813 36.7681C46.8034 36.8121 46.3226 36.7222 45.8928 36.5085C45.463 36.2949 45.1012 35.9658 44.8477 35.5582C44.7212 35.3056 44.6473 35.0298 44.6306 34.7478C44.6139 34.4657 44.6546 34.1831 44.7504 33.9173C45.3432 32.6049 46.4116 31.5663 47.7402 31.0109C50.146 29.8289 52.4266 30.0096 53.1637 31.4281C53.2937 31.6821 53.3696 31.9604 53.3863 32.2453C53.4031 32.5302 53.3604 32.8154 53.261 33.0829C52.6683 34.3953 51.5998 35.4339 50.2712 35.9893C49.3446 36.4672 48.3233 36.7332 47.2813 36.7681ZM46.7946 34.5709C47.6706 34.6943 48.5625 34.5178 49.3256 34.0703C50.1217 33.7501 50.7875 33.1723 51.2168 32.4293C50.3571 32.3705 49.4969 32.5372 48.7213 32.9128C47.9457 33.2884 47.2816 33.8599 46.7946 34.5709Z" fill="#00B56A"/>
</svg>
