<svg width="73" height="31" viewBox="0 0 73 31" fill="none" xmlns="http://www.w3.org/2000/svg">
<g clip-path="url(#clip0_88_924)">
<path d="M1.05946 23.0185L0.017088 18.1214C-0.017088 18.006 0 17.8906 0.0683521 17.8081C0.0683521 17.7917 4.04986 11.2788 10.099 9.58046C15.5672 8.04704 22.6758 7.48644 23.7865 7.404C24.6922 6.64553 30.861 1.73201 36.8418 0.742705C40.3961 0.149125 47.1117 -0.164154 53.1779 0.0831715C57.9967 0.29752 62.4396 0.858124 64.6098 1.92987C67.9249 3.5787 68.9843 4.68342 69.309 5.22753C70.1634 5.35944 72.8462 5.93653 72.9658 8.03055C73.0342 9.05283 72.9658 11.2952 72.8462 13.4387C72.7095 15.7966 72.5044 18.072 72.3677 18.5666C72.2652 18.8799 72.0772 18.9953 71.7867 18.9129C71.4108 18.8139 71.4279 18.5006 71.4792 17.9565C71.5646 16.7529 71.7867 13.5706 71.0178 11.8558C70.6418 11.0314 69.9925 10.5862 68.8647 11.0644C64.456 12.9276 64.7807 20.0011 64.7807 20.0176C64.7807 20.2319 64.644 20.3968 64.4389 20.4628L41.9169 26.2502C41.6777 26.3161 41.4384 26.1842 41.3701 25.9534C41.353 25.8709 41.353 25.805 41.3701 25.739C41.4555 25.2938 43.8649 13.1584 37.5253 15.3514C30.6559 17.7257 31.2882 27.19 31.2882 27.2065C31.3052 27.4373 31.1344 27.6352 30.9122 27.6682C30.8951 27.6682 22.334 29.0862 15.926 28.4926C12.611 28.1958 8.93703 27.7341 6.11751 27.2889C3.45178 26.8438 1.48666 26.3821 1.16198 25.9864C0.956929 25.739 0.734785 25.3928 0.580992 25.03C0.461376 24.7168 0.375936 24.387 0.410112 24.0737C0.444288 23.711 0.59808 23.3812 0.939841 23.1174C0.974017 23.0844 1.02528 23.0514 1.05946 23.0185ZM0.922753 18.1049L1.9993 23.1339C2.06765 23.3482 1.96512 23.5791 1.74298 23.6615C1.64045 23.6945 1.55501 23.7439 1.50375 23.7934C1.38413 23.8758 1.31578 24.0078 1.31578 24.1397C1.29869 24.321 1.34995 24.5189 1.41831 24.7168C1.53792 24.9971 1.7088 25.2444 1.86259 25.4422C2.03347 25.6566 3.79354 26.0193 6.2713 26.4151C9.07374 26.8767 12.7135 27.3384 16.0115 27.6352C21.4967 28.1298 28.6395 27.1241 30.3654 26.8767C30.3312 24.9806 30.5705 16.8188 37.2177 14.527C44.1383 12.1361 42.8396 22.4579 42.3783 25.2444L63.875 19.7043C63.875 18.1709 64.1655 12.1032 68.5058 10.273C70.2488 9.53099 71.257 10.2235 71.838 11.5096C71.9064 11.658 71.9576 11.8064 72.0089 11.9548C72.0772 10.3389 72.1114 8.83848 72.0772 8.08002C71.9576 6.38172 69.121 6.08493 68.9843 6.06844C68.7451 6.03546 68.5571 5.8376 68.5742 5.60677C68.5742 5.60677 68.6767 4.93074 64.1826 2.70482C62.1491 1.69903 57.8429 1.15491 53.1266 0.957054C47.1287 0.709728 40.4986 1.00652 36.9955 1.6001C30.9635 2.60589 24.658 7.8162 24.2821 8.14597C24.2137 8.21192 24.1112 8.26139 23.9916 8.26139C23.9745 8.26139 16.1823 8.77253 10.3553 10.4214C5.14349 11.8888 1.52083 17.1816 0.922753 18.1049Z" fill="#00B56A" stroke="#00B56A"/>
<path d="M0.905274 19.1109C0.666041 19.045 0.546425 18.7977 0.614777 18.5668C0.683129 18.336 0.93945 18.2041 1.17868 18.2865C1.21286 18.2865 9.55181 20.9411 22.6925 20.2981C22.9146 20.2981 23.1026 20.43 23.1539 20.6279C23.1539 20.6443 23.9399 23.5628 22.214 25.0797C21.2742 25.9041 16.7459 26.3823 11.8074 26.0195C8.11642 25.7392 4.152 25.0138 1.28121 23.6452C1.05907 23.5298 0.956538 23.266 1.07615 23.0516C1.17868 22.8373 1.45209 22.7549 1.67423 22.8538C4.42541 24.1729 8.27021 24.8819 11.8758 25.1457C16.5921 25.4919 20.8299 25.1292 21.6159 24.4367C22.6241 23.5463 22.4704 21.8975 22.3507 21.1885C9.2784 21.7656 0.93945 19.1109 0.905274 19.1109Z" fill="#00B56A" stroke="#00B56A"/>
<path d="M17.5669 18.1381C17.7719 17.9897 18.6605 17.2642 18.8656 17.0169C19.0364 16.8026 21.6851 15.5824 24.3508 14.3953C27.0336 13.2081 29.7848 12.0539 30.1266 12.0209C30.7759 11.955 32.9973 12.2023 32.9973 12.2023C33.2537 12.2353 33.4246 12.4496 33.4075 12.6805C33.3904 12.8124 33.322 12.9113 33.2366 12.9773C33.2195 12.9938 27.7001 17.3632 26.3159 17.8908C25.8204 18.0722 24.6926 18.2535 23.3939 18.4184C20.9503 18.7152 17.9086 18.9461 17.8232 18.9461C17.5669 18.9461 17.3789 18.7482 17.3789 18.5009C17.3789 18.3525 17.4473 18.2206 17.5669 18.1381ZM19.5662 17.561C19.4807 17.66 19.3269 17.8084 19.1561 17.9732C20.2668 17.8743 21.8731 17.7259 23.2914 17.561C24.5046 17.4126 25.5641 17.2478 25.9742 17.0829C26.9311 16.7201 30.2462 14.1809 31.8183 12.9608C31.2031 12.9113 30.5025 12.8619 30.2291 12.8783C29.9728 12.9113 27.3412 14.0325 24.7268 15.1867C22.1465 16.3244 19.6516 17.4621 19.5662 17.561Z" fill="#00B56A" stroke="#00B56A"/>
<path d="M4.49335 13.0926C4.51044 12.8618 4.71549 12.6639 4.95472 12.6804C5.21104 12.6969 5.39901 12.8948 5.39901 13.1421L5.26231 15.7143C5.26231 15.8132 5.22813 15.8791 5.17687 15.9451C5.17687 15.9616 3.86109 17.7423 3.14339 17.5115C2.57949 17.3301 1.96432 16.2254 1.96432 16.2254C1.84471 16.0111 1.93015 15.7472 2.15229 15.6318C2.37443 15.5164 2.64784 15.5988 2.76746 15.8132C2.76746 15.8132 3.21175 16.6211 3.43389 16.6871C3.50224 16.72 4.15159 15.8462 4.37373 15.5494L4.49335 13.0926Z" fill="#00B56A" stroke="#00B56A"/>
<path d="M16.5076 8.47596C16.7127 8.34406 16.9861 8.37703 17.1399 8.5584C17.2937 8.75626 17.2595 9.02008 17.0544 9.16847C17.0373 9.18496 11.7401 13.1092 11.3129 14.3128C11.3299 14.3293 11.4496 14.3623 11.6204 14.4118C11.9622 14.4942 12.4407 14.5272 12.9875 14.5272C14.6279 14.5437 16.7639 14.2304 17.6183 13.9501C17.755 13.9006 18.131 13.7687 18.6607 13.6038C22.0954 12.4167 31.9723 9.05305 38.7733 8.09673C39.0125 8.06375 39.2518 8.22864 39.2859 8.45947C39.3201 8.7068 39.1492 8.92115 38.8929 8.95412C32.1773 9.89396 22.3688 13.2576 18.9512 14.4118C18.4898 14.5766 18.1652 14.6921 17.8917 14.7745C16.969 15.0713 14.7134 15.4176 12.9875 15.4011C12.3723 15.4011 11.8084 15.3516 11.3983 15.2527C10.8344 15.1043 10.4755 14.8405 10.4243 14.4118C10.4072 14.2963 10.4072 14.1644 10.4585 14.0325C10.9711 12.5651 16.4905 8.49245 16.5076 8.47596Z" fill="#00B56A" stroke="#00B56A"/>
<path d="M24.8798 8.2945C24.6406 8.2945 24.4355 8.09664 24.4355 7.84932C24.4526 7.61848 24.6577 7.42062 24.8969 7.42062C24.9482 7.42062 40.1565 7.78336 45.1633 8.52534C45.6247 7.48657 47.231 4.28784 50.3922 1.88054L37.73 1.53428C37.4737 1.51779 37.2857 1.31993 37.2857 1.0891C37.2857 0.841772 37.5079 0.6604 37.7471 0.6604L51.7422 1.05612C51.896 1.05612 52.0327 1.12207 52.1181 1.25398C52.2548 1.45184 52.2036 1.71565 51.9814 1.84756C47.812 4.46921 46.0177 8.77266 45.8639 9.13541C45.7956 9.34976 45.5905 9.48166 45.3684 9.4322C40.823 8.67373 24.9311 8.2945 24.8798 8.2945Z" fill="#00B56A" stroke="#00B56A"/>
<path d="M47.2817 8.83863C47.2988 8.82215 50.6652 2.54009 55.4498 2.01246C57.7738 1.74865 59.9269 1.88055 61.7724 2.35872C63.6691 2.83688 65.2412 3.67778 66.369 4.83197C66.5399 5.01334 66.5399 5.27715 66.352 5.44204L66.3349 5.45852C66.3349 5.45852 62.4901 8.85512 47.6918 9.48168C47.4526 9.48168 47.2476 9.30031 47.2305 9.05298C47.2305 8.97054 47.2476 8.90459 47.2817 8.83863ZM55.5523 2.86985C52.1518 3.24909 49.4519 7.00843 48.4779 8.57482C59.756 8.01422 64.1305 5.85424 65.3438 5.07929C64.3697 4.2219 63.0711 3.57885 61.5331 3.19962C59.8072 2.75444 57.7738 2.62253 55.5523 2.86985Z" fill="#00B56A" stroke="#00B56A"/>
<path d="M58.0142 2.73795C57.8092 2.58955 57.7579 2.32574 57.9117 2.12788C58.0484 1.93002 58.3389 1.88056 58.5269 2.01246C58.5439 2.02895 60.492 3.29855 60.5262 7.32171C60.5262 7.55254 60.3211 7.7504 60.0819 7.7504C59.8255 7.76689 59.6205 7.56903 59.6205 7.32171C59.5863 3.76023 58.0313 2.73795 58.0142 2.73795Z" fill="#00B56A" stroke="#00B56A"/>
<path d="M49.1115 12.4826C49.3507 12.4002 49.6071 12.5156 49.6925 12.7464C49.7779 12.9773 49.6583 13.2246 49.4191 13.307L43.8313 15.2527L44.344 16.6212L48.2913 16.1595C48.5305 16.1265 48.7697 16.3079 48.7868 16.5387C48.821 16.7861 48.6501 17.0004 48.3938 17.0334L44.1047 17.5445V17.528C43.8997 17.561 43.6946 17.4456 43.6263 17.2477L42.8402 15.1537C42.7548 14.9229 42.8744 14.6756 43.0965 14.5931L49.1115 12.4826Z" fill="#00B56A" stroke="#00B56A"/>
<path d="M49.6074 9.56411C49.4707 9.36625 49.5049 9.08595 49.7099 8.95404C49.915 8.82213 50.2055 8.8716 50.3422 9.05297L51.5554 10.7348C51.6067 10.8007 51.6238 10.8667 51.6238 10.9326C51.6409 10.9491 52.5636 18.171 50.7523 23.4803C50.684 23.7111 50.4276 23.843 50.1884 23.7606C49.9492 23.6946 49.8125 23.4473 49.8979 23.2165C51.5213 18.4513 50.8548 12.0374 50.7523 11.147L49.6074 9.56411Z" fill="#00B56A" stroke="#00B56A"/>
<path d="M60.2002 7.8988C59.9951 7.7504 59.9609 7.48659 60.0976 7.28873C60.2344 7.09087 60.5248 7.0414 60.7299 7.1898L63.9254 9.34977C64.045 9.43221 64.1133 9.54763 64.1133 9.67954C64.1475 9.92686 64.4722 12.4496 63.4298 15.401C62.3874 18.3689 61.516 20.6278 61.516 20.6443C61.4305 20.8586 61.1571 20.9741 60.935 20.8916C60.6957 20.8092 60.5761 20.5454 60.6786 20.331C60.6786 20.3145 61.516 18.1381 62.5754 15.1207C63.4298 12.6804 63.3102 10.5864 63.2418 9.95984L60.2002 7.8988Z" fill="#00B56A" stroke="#00B56A"/>
<path d="M30.4516 27.4376C30.4174 27.2067 30.5883 26.9759 30.8276 26.9429C31.0839 26.9099 31.306 27.0583 31.3573 27.3057C31.3573 27.3057 31.8528 30.323 35.4755 30.1252C37.3723 30.0098 38.5855 29.4821 39.4399 28.7402C40.3114 27.9817 40.8411 26.9759 41.3196 25.9206C41.4221 25.6898 41.6955 25.5909 41.9177 25.6898C42.1569 25.7887 42.2594 26.0526 42.1569 26.2669C41.6101 27.4046 41.0462 28.5093 40.038 29.3832C39.0469 30.2571 37.6457 30.8672 35.5268 30.9826C31.0839 31.2299 30.4687 27.4541 30.4516 27.4376Z" fill="#00B56A" stroke="#00B56A"/>
<path d="M38.7899 16.9015C38.5507 16.8355 35.7995 16.1925 34.6888 21.8645C34.347 23.5957 34.3812 24.9148 34.6204 25.8876C34.8426 26.7615 35.2185 27.3716 35.6628 27.7508C36.0729 28.1465 36.5514 28.3279 36.9444 28.3938C37.2007 28.4433 37.4058 28.4433 37.5596 28.4103C38.0893 28.2949 38.7899 27.8332 39.4051 26.745C39.8835 25.8876 40.2936 24.651 40.5329 22.9032C40.755 21.139 40.6354 19.7869 40.3278 18.8141C39.9519 17.627 39.3367 17.0334 38.8412 16.918C38.8241 16.918 38.807 16.918 38.7899 16.9015ZM33.8002 21.6996C35.0989 15.0713 38.7557 15.9946 39.0462 16.0771C39.8152 16.2584 40.7038 17.0499 41.1822 18.5668C41.524 19.6385 41.6778 21.106 41.4215 23.0186C41.1822 24.8818 40.7208 26.2174 40.1911 27.1737C39.4222 28.5258 38.4823 29.0864 37.7646 29.2512C37.5083 29.3172 37.1665 29.3337 36.7735 29.2512C36.2438 29.1523 35.5944 28.905 35.0305 28.3938C34.4837 27.8992 34.0053 27.1572 33.7318 26.0855C33.4755 24.9972 33.4414 23.5793 33.8002 21.6996Z" fill="#00B56A" stroke="#00B56A"/>
<path d="M69.3259 12.1858C69.2063 12.1364 67.9931 11.7736 67.395 16.0771C67.1045 18.0392 67.2412 19.3253 67.5146 20.1167L67.5317 20.1662C67.6855 20.5619 67.8734 20.8257 68.0614 21.0071C68.2152 21.1555 68.3861 21.2214 68.5057 21.2379C68.557 21.2379 68.5911 21.2379 68.6082 21.2379C68.8475 21.1555 69.1721 20.8257 69.5139 19.9848C69.7702 19.3088 70.0094 18.3195 70.1461 16.918C70.2999 15.5 70.2316 14.4118 70.0607 13.6368C69.8727 12.73 69.5993 12.2848 69.3943 12.2023C69.3772 12.2023 69.3601 12.2023 69.3259 12.1858ZM66.4893 15.9617C67.2412 10.6524 69.3943 11.279 69.6848 11.3944C70.1632 11.5593 70.693 12.2188 70.9493 13.4554C71.1372 14.3128 71.2056 15.4835 71.0518 17.0004C70.898 18.4844 70.6417 19.5561 70.3512 20.2981C69.9069 21.4193 69.343 21.914 68.8987 22.0624C68.762 22.0953 68.574 22.1283 68.3861 22.0953C68.0956 22.0624 67.7538 21.9304 67.4462 21.6337C67.1557 21.3863 66.8823 20.9906 66.6773 20.4465C66.6773 20.43 66.6773 20.4135 66.6602 20.4135C66.3355 19.4902 66.1988 18.0887 66.4893 15.9617Z" fill="#00B56A" stroke="#00B56A"/>
<path d="M62.8321 20.7267C62.7808 20.4959 62.9346 20.2651 63.1909 20.2156C63.4302 20.1661 63.6694 20.3145 63.7207 20.5619C63.7207 20.5619 64.1991 23.0681 68.6591 22.3756C68.83 22.3426 69.4281 22.1942 70.0261 21.6666C70.6413 21.1225 71.2736 20.1496 71.4615 18.4678C71.4786 18.237 71.7008 18.0556 71.9571 18.0886C72.1963 18.1051 72.3843 18.3194 72.3501 18.5668C72.1451 20.4959 71.3932 21.6501 70.6242 22.3096C69.8553 23.0021 69.0692 23.1835 68.8471 23.233H68.83C63.4643 24.0739 62.8321 20.7267 62.8321 20.7267Z" fill="#00B56A" stroke="#00B56A"/>
</g>
<defs>
<clipPath id="clip0_88_924">
<rect width="73" height="31" fill="white"/>
</clipPath>
</defs>
</svg>
