<svg width="27" height="27" viewBox="0 0 27 27" fill="none" xmlns="http://www.w3.org/2000/svg">
<path d="M25.0348 3.40811C24.7765 3.14978 24.389 3.14978 24.1307 3.40811L13.539 13.9352L9.40572 9.34981C9.14732 9.09141 8.75982 9.09141 8.50152 9.28521C8.24322 9.54351 8.24322 9.931 8.43692 10.1894C8.95362 10.7706 9.47032 11.3519 9.98692 11.8685C10.8265 12.7727 11.6661 13.6769 12.4411 14.581C12.5703 14.7102 12.6994 14.8394 12.764 14.9685C12.9578 15.1623 13.1515 15.4852 13.4744 15.4852C13.6682 15.4852 13.7973 15.4206 13.9265 15.2914L25.0348 4.31227C25.2932 4.05393 25.2932 3.66644 25.0348 3.40811Z" fill="#00B56A"/>
<path d="M13.5383 25.2372C12.3758 25.2372 11.1488 25.0434 9.98632 24.6559C7.01544 23.6872 4.62586 21.6851 3.26961 18.908C0.363355 13.2247 2.62378 6.18512 8.24252 3.27887C11.2133 1.72887 14.7008 1.59969 17.8008 2.82677C18.3821 3.02052 18.8988 3.34344 19.4154 3.60177C19.7383 3.79552 19.8029 4.18302 19.6092 4.50594C19.4154 4.82886 19.0279 4.89344 18.705 4.69969C18.2529 4.44136 17.8008 4.18302 17.2842 3.98927C14.5071 2.89136 11.4717 3.02052 8.82381 4.37678C3.78627 6.96011 1.78419 13.2247 4.36753 18.2622C5.59461 20.7164 7.72586 22.5247 10.3738 23.3643C12.9571 24.2039 15.7342 23.9455 18.1238 22.7184C22.6446 20.3934 24.7758 14.9684 23.0967 10.1247C22.9675 9.8018 23.1613 9.41431 23.4842 9.28511C23.8071 9.15591 24.1946 9.34971 24.3238 9.67261C26.1967 15.0976 23.8071 21.233 18.705 23.8164C17.0904 24.7851 15.3467 25.2372 13.5383 25.2372Z" fill="#00B56A"/>
<path d="M25.0348 3.40811C24.7765 3.14978 24.389 3.14978 24.1307 3.40811L13.539 13.9352L9.40572 9.34981C9.14732 9.09141 8.75982 9.09141 8.50152 9.28521C8.24322 9.54351 8.24322 9.931 8.43692 10.1894C8.95362 10.7706 9.47032 11.3519 9.98692 11.8685C10.8265 12.7727 11.6661 13.6769 12.4411 14.581C12.5703 14.7102 12.6994 14.8394 12.764 14.9685C12.9578 15.1623 13.1515 15.4852 13.4744 15.4852C13.6682 15.4852 13.7973 15.4206 13.9265 15.2914L25.0348 4.31227C25.2932 4.05393 25.2932 3.66644 25.0348 3.40811Z" stroke="#00B56A"/>
<path d="M13.5383 25.2372C12.3758 25.2372 11.1488 25.0434 9.98632 24.6559C7.01544 23.6872 4.62586 21.6851 3.26961 18.908C0.363355 13.2247 2.62378 6.18512 8.24252 3.27887C11.2133 1.72887 14.7008 1.59969 17.8008 2.82677C18.3821 3.02052 18.8988 3.34344 19.4154 3.60177C19.7383 3.79552 19.8029 4.18302 19.6092 4.50594C19.4154 4.82886 19.0279 4.89344 18.705 4.69969C18.2529 4.44136 17.8008 4.18302 17.2842 3.98927C14.5071 2.89136 11.4717 3.02052 8.82381 4.37678C3.78627 6.96011 1.78419 13.2247 4.36753 18.2622C5.59461 20.7164 7.72586 22.5247 10.3738 23.3643C12.9571 24.2039 15.7342 23.9455 18.1238 22.7184C22.6446 20.3934 24.7758 14.9684 23.0967 10.1247C22.9675 9.8018 23.1613 9.41431 23.4842 9.28511C23.8071 9.15591 24.1946 9.34971 24.3238 9.67261C26.1967 15.0976 23.8071 21.233 18.705 23.8164C17.0904 24.7851 15.3467 25.2372 13.5383 25.2372Z" stroke="#00B56A"/>
</svg>
