<svg width="87" height="68" viewBox="0 0 87 68" fill="none" xmlns="http://www.w3.org/2000/svg">
<path d="M77 34C77 52.2254 62.2254 67 44 67C25.7746 67 11 52.2254 11 34C11 15.7746 25.7746 1 44 1C62.2254 1 77 15.7746 77 34ZM13.3148 34C13.3148 50.947 27.053 64.6852 44 64.6852C60.947 64.6852 74.6852 50.947 74.6852 34C74.6852 17.053 60.947 3.31482 44 3.31482C27.053 3.31482 13.3148 17.053 13.3148 34Z" fill="#00B56A"/>
<path d="M49.9954 49.6511C49.8171 47.7232 49.8855 46.3777 49.8855 44.616C50.777 44.158 52.3743 41.2374 52.6442 38.7701C53.3451 38.7139 54.4503 38.0442 54.7739 35.3999C54.9486 33.9802 54.2549 33.1813 53.8324 32.9302C54.973 29.5707 57.3421 19.1777 49.4508 18.1037C48.6387 16.7068 46.559 16 43.8565 16C33.0441 16.1949 31.7399 23.9963 34.1102 32.9302C33.6889 33.1813 32.9953 33.9802 33.1687 35.3999C33.4935 38.0442 34.5975 38.7139 35.2984 38.7701C35.5671 41.2362 37.2279 44.158 38.1218 44.616C38.1218 46.3777 38.189 47.7232 38.0107 49.6511C36.4708 53.7054 28.5624 54.0223 24 57.932C28.77 62.6357 36.5001 66 44.6576 66C52.8151 66 62.4039 59.6924 64 57.9714C59.4657 54.0259 51.539 53.7198 49.9954 49.6511Z" stroke="#00B56A" stroke-width="2.5" stroke-miterlimit="10" stroke-linecap="round"/>
</svg>
