<svg width="87" height="68" viewBox="0 0 87 68" fill="none" xmlns="http://www.w3.org/2000/svg">
<g clip-path="url(#clip0_359_31)">
<path d="M23.77 22.2915C23.7292 22.2915 11.6295 23.137 5.76294 27.7381L3.56299 32.8111C3.56299 32.8308 3.54262 32.8504 3.54262 32.8898C3.2167 33.5386 -1.57023 43.1734 3.03337 46.5948C10.4888 48.7184 22.5885 48.8363 33.0383 48.9347C36.8475 48.974 40.4529 49.0133 43.5084 49.151C43.9158 49.151 50.2916 49.2493 50.6175 48.3448C50.6583 48.2071 50.7398 47.6173 50.8824 46.7717C51.3509 43.4881 52.4101 36.3898 54.9156 32.4375C56.5656 29.8027 58.8063 28.505 61.8821 30.2943L61.9025 30.3139C61.9025 30.3139 65.3654 32.4179 65.0598 44.0976L65.1006 45.238L78.5447 41.9543C78.8299 39.7521 80.541 28.151 84.5742 29.1342C84.7576 29.1735 85.389 29.3308 85.8372 30.4319C86.0816 28.3477 86.0001 25.6538 84.4316 24.1791C83.8002 23.5892 83.0669 22.7634 82.2113 21.7999C78.7688 17.887 73.2486 11.6539 66.1394 11.3196C60.8229 11.064 53.0823 10.887 46.3602 11.2213C41.614 11.4573 37.3975 11.9685 34.9327 12.873C34.892 12.8926 34.8512 12.8926 34.8105 12.9123C34.6068 12.9516 32.2235 13.5612 24.1366 22.1342C24.0348 22.2325 23.8922 22.2915 23.77 22.2915ZM4.96852 27.0106C10.611 22.5078 21.7941 21.4263 23.4848 21.2887C31.3068 13.0303 34.1179 12.0078 34.566 11.8898C37.153 10.946 41.4714 10.4348 46.3195 10.1988C53.0619 9.8449 60.8433 10.0219 66.1802 10.2775C73.7782 10.6511 79.4614 17.0808 83.0261 21.1117C83.8817 22.0752 84.5946 22.8814 85.165 23.4319C88.363 26.4404 86.4279 33.224 86.3057 33.6763C86.2446 33.9122 86.0205 34.0695 85.7761 34.0695C85.4705 34.0695 85.2261 33.8336 85.2261 33.5583C85.2261 30.1566 84.4724 30.1763 84.4724 30.1763C84.4316 30.1763 84.3909 30.1566 84.3502 30.1566C81.1317 29.2521 79.6243 41.9347 79.5632 42.4066C79.5429 42.6229 79.4003 42.8195 79.1762 42.8785L64.7135 46.4178C64.6932 46.4178 64.6524 46.4178 64.6117 46.4178C64.3265 46.4375 64.0617 46.2212 64.0617 45.9262L63.9802 44.1173V44.0976C64.2654 32.9684 61.3118 31.1791 61.2914 31.1791C58.9285 29.783 57.1563 30.8645 55.8323 32.9684C53.449 36.7437 52.4101 43.7043 51.9416 46.9094C51.799 47.8139 51.7175 48.4431 51.636 48.679C51.0657 50.2914 43.8955 50.1931 43.4881 50.1931L43.4677 50.1734C40.3918 50.0554 36.8271 50.0161 33.0179 49.9768C22.4663 49.8785 10.224 49.7408 2.62597 47.5583C2.56486 47.5386 2.50375 47.5189 2.46301 47.4796C-2.97576 43.5864 2.23894 33.0667 2.58523 32.4179L4.82593 27.2072C4.86667 27.1482 4.90741 27.0696 4.96852 27.0106Z" fill="#00B56A" stroke="#00B56A"/>
<path d="M24.5656 22.4475C24.2601 22.4475 24.0156 22.2115 24.0156 21.9166C24.0156 21.6413 24.2601 21.4053 24.5452 21.4053L58.6853 21.2677C59.0927 19.4391 60.8037 12.1048 62.7796 10.7284C63.0241 10.5711 63.3703 10.6301 63.5333 10.8661C63.7166 11.102 63.6555 11.4166 63.4111 11.5739C61.5167 12.8913 59.7241 21.543 59.663 21.8773C59.6223 22.1132 59.3982 22.2902 59.1334 22.2902L24.5656 22.4475Z" fill="#00B56A" stroke="#00B56A"/>
<path d="M62.7962 21.8016C62.8981 21.2707 64.8332 12.1865 67.7869 12.5207C69.172 12.678 71.5757 14.0544 73.9182 15.8044C76.22 17.5347 78.4811 19.6387 79.5607 21.2904C79.7236 21.5263 79.6422 21.8409 79.3977 21.9982C79.3162 22.0572 79.2144 22.0769 79.1125 22.0769C79.0718 22.0769 63.2444 22.5881 62.9388 22.2932C62.7962 22.1555 62.7555 21.9786 62.7962 21.8016ZM67.6646 13.5629C65.9128 13.3662 64.3443 19.796 63.9369 21.5853C65.5869 21.605 74.9978 21.2117 78.094 21.0937C76.9533 19.678 75.12 18.0263 73.246 16.6303C71.0664 14.9786 68.8461 13.6808 67.6646 13.5629Z" fill="#00B56A" stroke="#00B56A"/>
<path d="M72.4736 16.6294C72.494 16.3542 72.7384 16.1182 73.0236 16.1379C73.3291 16.1379 73.5532 16.3935 73.5532 16.6688L73.3699 21.0339C73.3495 21.3289 73.105 21.5452 72.7995 21.5452C72.5143 21.5255 72.2699 21.2895 72.2903 20.9946L72.4736 16.6294Z" fill="#00B56A" stroke="#00B56A"/>
<path d="M7.49274 28.0531C8.36864 28.0137 28.6164 26.9323 34.707 28.348C34.9107 28.407 35.0736 28.5643 35.1144 28.7609C35.1144 28.7806 36.7236 36.6654 26.9664 36.8817C26.1109 36.921 25.2757 36.9407 24.4609 36.9603C16.15 37.1766 8.79641 37.3536 7.35015 35.289C6.4335 33.9716 6.08721 31.7497 6.18906 30.1963C6.2298 29.7637 6.29091 29.3705 6.39276 29.0559C6.51498 28.6626 6.71868 28.3677 6.96312 28.2104C7.12608 28.0924 7.30941 28.0531 7.49274 28.0531ZM34.0959 29.2918C27.7608 28.0137 8.3279 29.0362 7.55385 29.0952H7.53348C7.51311 29.1345 7.47237 29.2328 7.43163 29.3508C7.35015 29.6064 7.28904 29.9014 7.26867 30.275C7.16682 31.6514 7.452 33.598 8.22605 34.7188C9.36677 36.3115 16.4351 36.1345 24.4202 35.9182C25.2553 35.8985 26.0905 35.8789 26.9257 35.8592C34.2996 35.6822 34.2385 30.6486 34.0959 29.2918Z" fill="#00B56A" stroke="#00B56A"/>
<path d="M35.786 34.1495C35.8471 33.8349 36.886 29.4304 40.96 27.7984C43.4247 26.8153 47.0709 26.4023 49.5968 26.4023C50.3912 26.4023 51.0838 26.4417 51.6134 26.5203C52.2856 26.6383 52.7338 26.8349 52.8764 27.1692C52.8764 27.1889 52.8967 27.2085 52.8967 27.2282C52.9171 27.2872 52.9375 27.3462 52.9375 27.4248C52.9375 27.4838 52.9375 27.5035 52.9375 27.5231C52.9782 28.8012 53.1819 34.7984 36.2952 34.7984C36.0101 34.7984 35.7656 34.5624 35.7656 34.2871C35.7656 34.2282 35.7656 34.1888 35.786 34.1495ZM41.3674 28.7619C38.5563 29.8827 37.3952 32.5372 37.0082 33.7563C52.0412 33.5989 51.8986 28.6439 51.8579 27.5625V27.5428C51.7968 27.5428 51.6745 27.5821 51.4301 27.5428C50.982 27.4838 50.3505 27.4445 49.5968 27.4445C47.1728 27.4445 43.6895 27.8377 41.3674 28.7619ZM52.9375 27.5231C52.9375 27.8181 52.7134 28.054 52.4079 28.054L52.9375 27.5231Z" fill="#00B56A" stroke="#00B56A"/>
<path d="M4.92444 28.6219C4.92444 28.3269 5.14851 28.091 5.45406 28.091C5.73924 28.0713 6.00405 28.3073 6.00405 28.5826L6.18737 34.0488C6.20774 34.2848 6.02442 34.5011 5.77998 34.5601C5.4948 34.6387 3.58002 35.091 2.90781 33.1837C2.80597 32.9084 2.94855 32.6134 3.23373 32.5151C3.51891 32.4365 3.82446 32.5741 3.92631 32.8494C4.17075 33.5376 4.72074 33.6556 5.10777 33.6359L4.92444 28.6219Z" fill="#00B56A" stroke="#00B56A"/>
<path d="M1.487 45.8078C1.20182 45.7881 0.957381 45.5521 0.977751 45.2769C0.977751 44.9819 1.22219 44.7656 1.52774 44.7656L50.8841 46.2207C51.1693 46.2207 51.4137 46.4763 51.3933 46.7516C51.3933 47.0465 51.1489 47.2628 50.8434 47.2628L1.487 45.8078Z" fill="#00B56A" stroke="#00B56A"/>
<path d="M4.21311 45.1389C4.13163 45.4142 3.82608 45.5518 3.5409 45.4535C3.25572 45.3749 3.11313 45.0799 3.19461 44.8046C3.21498 44.785 5.15013 39.1614 7.96118 39.0434C10.4056 38.9254 30.5718 39.4957 30.6329 39.4957C30.6533 39.4957 30.694 39.5153 30.7144 39.5153C30.7348 39.5153 33.5255 40.0462 34.5439 41.0294C35.4606 41.8945 39.1476 45.6501 39.1679 45.6698C39.3716 45.8664 39.3513 46.2007 39.1476 46.3973C38.9235 46.594 38.5772 46.5743 38.3735 46.3777C38.3735 46.358 34.6865 42.6221 33.7903 41.7569C33.0773 41.0687 30.8977 40.5968 30.5514 40.5378C29.4718 40.4985 10.3445 39.9676 8.00192 40.0659C5.94455 40.1642 4.23348 45.1192 4.21311 45.1389Z" fill="#00B56A" stroke="#00B56A"/>
<path d="M52.4307 27.6607C52.1659 27.7983 51.84 27.7 51.6974 27.4444C51.5548 27.1888 51.6566 26.8742 51.9215 26.7365C51.9418 26.7365 58.0121 23.6495 58.6232 21.6242C58.7046 21.3489 59.0102 21.1916 59.2954 21.2702C59.5805 21.3489 59.7435 21.6242 59.662 21.8995C58.9083 24.3573 52.4511 27.6607 52.4307 27.6607Z" fill="#00B56A" stroke="#00B56A"/>
<path d="M64.4709 36.2715C64.1857 36.3108 63.9209 36.1142 63.8802 35.8192C63.8395 35.544 64.0432 35.2883 64.3283 35.249L80.278 33.2237C80.5632 33.1844 80.8483 33.3811 80.8687 33.676C80.9095 33.9513 80.7058 34.2069 80.4206 34.2462L64.4709 36.2715Z" fill="#00B56A" stroke="#00B56A"/>
<path d="M72.9655 22.7828C72.7822 22.5469 72.8229 22.2323 73.0673 22.0553C73.2914 21.8783 73.6377 21.9177 73.821 22.1536C73.821 22.1536 75.0432 23.7463 75.0432 25.8699C75.0432 27.6985 74.5951 42.662 74.5951 42.7013C74.5951 42.9962 74.3507 43.2125 74.0451 43.2125C73.7396 43.2125 73.5155 42.9766 73.5155 42.6816C73.5155 42.6423 73.9636 27.9148 73.9636 25.8699C73.9636 24.0806 72.9655 22.7828 72.9655 22.7828Z" fill="#00B56A" stroke="#00B56A"/>
<path d="M3.55965 47.7536C3.49854 47.4586 3.6615 47.1834 3.94667 47.1047C4.23185 47.0261 4.5374 47.203 4.59851 47.4783C4.61888 47.4783 5.69849 51.4895 10.628 52.689C12.1761 53.0822 14.3965 53.0626 16.4946 52.3547C18.1242 51.7845 19.6519 50.821 20.6908 49.2676C20.8537 49.0317 21.2 48.9727 21.4445 49.13C21.6889 49.2873 21.75 49.6019 21.587 49.8378C20.4056 51.5878 18.6741 52.7086 16.8612 53.3182C14.5594 54.1047 12.0743 54.1243 10.3632 53.6918C4.82258 52.335 3.55965 47.7536 3.55965 47.7536Z" fill="#00B56A" stroke="#00B56A"/>
<path d="M41.6341 49.8781C41.6137 49.6028 41.8378 49.3472 42.123 49.3079C42.4285 49.2882 42.6933 49.5045 42.7137 49.7994C42.7137 49.7994 43.1211 54.8528 48.5395 55.6983C49.0488 55.7769 49.558 55.8359 50.0876 55.8753C52.7765 56.1112 55.9134 55.9146 58.5411 54.6562C61.1078 53.3977 63.2059 51.0972 63.8781 47.1253C63.9392 46.7517 63.9799 46.3781 64.0207 46.0045C64.041 45.7096 64.3058 45.5129 64.591 45.5326C64.8966 45.5523 65.1206 45.8079 65.0799 46.1028C65.0392 46.5157 64.9984 46.909 64.9373 47.2826C64.204 51.6477 61.8818 54.1843 59.0097 55.5803C56.1782 56.9371 52.8376 57.173 49.9858 56.9174C49.4358 56.8584 48.8858 56.7994 48.3765 56.7208C42.123 55.7376 41.6341 49.8978 41.6341 49.8781Z" fill="#00B56A" stroke="#00B56A"/>
<path d="M51.6389 48.521C51.7611 48.7963 51.6185 49.0913 51.3537 49.2092C51.2518 49.2486 51.1704 49.2486 51.0685 49.2486L51.6185 49.4649C51.6389 49.9368 51.7203 50.5856 51.8833 51.2935C52.3314 53.2008 53.4314 55.5014 55.9369 55.4227C56.2425 55.403 56.4869 55.639 56.4869 55.9143C56.5073 56.2092 56.2628 56.4452 55.9777 56.4452C52.7388 56.5632 51.3741 53.8104 50.8241 51.5295C50.6407 50.7429 50.5593 50.0351 50.5389 49.5042C50.5185 49.2289 50.5389 48.993 50.6 48.7963C50.5796 48.698 50.5796 48.5997 50.6407 48.5014C50.7426 48.2654 51.0074 48.1474 51.2518 48.2064C51.2926 48.2064 51.3129 48.2064 51.3333 48.2261C51.4759 48.2851 51.5778 48.3834 51.6389 48.521Z" fill="#00B56A" stroke="#00B56A"/>
<path d="M56.4841 32.8298C56.2193 32.9478 55.8934 32.8495 55.7712 32.5939C55.6286 32.3382 55.7508 32.0236 56.0156 31.9057C56.0156 31.886 60.5377 29.6838 63.7969 34.1669C63.9599 34.4028 63.8988 34.7175 63.6747 34.8748C63.4303 35.0517 63.084 34.9927 62.921 34.7568C60.1914 31.0012 56.5045 32.8298 56.4841 32.8298Z" fill="#00B56A" stroke="#00B56A"/>
<path d="M75.5482 43.742C75.5278 43.4471 75.7519 43.2111 76.037 43.1915C76.3426 43.1718 76.587 43.3881 76.6074 43.6634C76.6074 43.683 76.8111 47.4386 78.9296 47.4386C79.0314 47.4386 79.3573 47.4583 79.6833 47.4583C81.8832 47.4976 84.2665 47.5369 85.0609 44.037C85.9979 39.7898 85.2035 34.6185 85.2035 34.5988C85.1628 34.3235 85.3665 34.0482 85.6517 34.0089C85.9572 33.9696 86.222 34.1662 86.2627 34.4612C86.2627 34.4808 87.0979 39.8291 86.0998 44.2533C85.122 48.5987 82.311 48.5398 79.6629 48.5004C79.4592 48.4808 79.2962 48.4808 78.9296 48.4808C75.7926 48.4808 75.5482 43.742 75.5482 43.742Z" fill="#00B56A" stroke="#00B56A"/>
<path d="M85.4298 33.5791C85.6539 33.7757 85.6539 34.11 85.4502 34.3066C85.2465 34.5229 84.9002 34.5229 84.6761 34.3263C84.6761 34.3263 83.128 32.8123 82.4354 35.6634C81.9873 37.5903 81.7632 40.8347 82.028 43.3319C82.1299 44.315 82.2929 45.1605 82.5577 45.7701C82.7614 46.2223 82.9854 46.5173 83.2095 46.5173C83.2706 46.5173 83.3521 46.5173 83.4336 46.4779C83.7188 46.36 84.0243 46.4976 84.1262 46.7729C84.2484 47.0285 84.1058 47.3235 83.841 47.4414C83.6169 47.5201 83.3928 47.5594 83.1688 47.5594C82.4558 47.5201 81.9262 47.0088 81.5595 46.1633C81.2744 45.4555 81.0707 44.5117 80.9484 43.4499C80.6836 40.815 80.9077 37.433 81.3966 35.4274C82.5169 30.7673 85.4298 33.5791 85.4298 33.5791Z" fill="#00B56A" stroke="#00B56A"/>
</g>
<defs>
<clipPath id="clip0_359_31">
<rect width="87" height="68" fill="white"/>
</clipPath>
</defs>
</svg>
