<svg width="76" height="76" viewBox="0 0 76 76" fill="none" xmlns="http://www.w3.org/2000/svg">
<path d="M10 64C10 62.44 13.84 60.6 16.48 60H16.7L32.7 54C33.1028 53.8505 33.4467 53.5752 33.6808 53.215C33.9149 52.8548 34.0269 52.4288 34 52V46.62C33.9989 46.243 33.8913 45.874 33.6896 45.5556C33.4879 45.2371 33.2003 44.9821 32.86 44.82C30.8111 43.8488 29.0794 42.317 27.8653 40.4021C26.6512 38.4871 26.0044 36.2674 26 34C26 33.4696 25.7893 32.9609 25.4142 32.5858C25.0391 32.2107 24.5304 32 24 32V28C24.5304 28 25.0391 27.7893 25.4142 27.4142C25.7893 27.0391 26 26.5304 26 26V22C26 18.8174 27.2643 15.7652 29.5147 13.5147C31.7652 11.2643 34.8174 10 38 10C41.1826 10 44.2348 11.2643 46.4853 13.5147C48.7357 15.7652 50 18.8174 50 22V26C50 26.5304 50.2107 27.0391 50.5858 27.4142C50.9609 27.7893 51.4696 28 52 28V32H56V28C55.9993 27.2985 55.8141 26.6096 55.4631 26.0023C55.112 25.395 54.6075 24.8907 54 24.54V22C54 17.7565 52.3143 13.6869 49.3137 10.6863C46.3131 7.68571 42.2435 6 38 6C33.7565 6 29.6869 7.68571 26.6863 10.6863C23.6857 13.6869 22 17.7565 22 22V24.54C21.3925 24.8907 20.888 25.395 20.5369 26.0023C20.1859 26.6096 20.0007 27.2985 20 28V32C19.9937 32.7082 20.1755 33.4054 20.5269 34.0204C20.8783 34.6353 21.3866 35.1459 22 35.5C22.2638 38.04 23.1265 40.4811 24.5172 42.6229C25.9079 44.7646 27.787 46.5458 30 47.82V50.6L15.4 56C13.58 56.46 6 58.74 6 64V68C6 68.5304 6.21071 69.0391 6.58579 69.4142C6.96086 69.7893 7.46957 70 8 70H36V66H10V64Z" fill="#00B56A"/>
<path d="M54 38C50.8355 38 47.7421 38.9384 45.1109 40.6965C42.4797 42.4546 40.4289 44.9534 39.2179 47.8771C38.0069 50.8007 37.6901 54.0177 38.3074 57.1214C38.9248 60.2251 40.4487 63.0761 42.6863 65.3137C44.9239 67.5513 47.7749 69.0752 50.8786 69.6926C53.9823 70.3099 57.1993 69.9931 60.1229 68.7821C63.0466 67.5711 65.5454 65.5203 67.3035 62.8891C69.0616 60.2579 70 57.1645 70 54C70 49.7565 68.3143 45.6869 65.3137 42.6863C62.3131 39.6857 58.2435 38 54 38V38ZM54 66C51.6266 66 49.3066 65.2962 47.3332 63.9776C45.3598 62.6591 43.8217 60.7849 42.9135 58.5922C42.0052 56.3995 41.7676 53.9867 42.2306 51.6589C42.6936 49.3311 43.8365 47.1929 45.5147 45.5147C47.193 43.8365 49.3312 42.6936 51.6589 42.2306C53.9867 41.7676 56.3995 42.0052 58.5922 42.9134C60.7849 43.8217 62.6591 45.3598 63.9776 47.3332C65.2962 49.3065 66 51.6266 66 54C66 57.1826 64.7357 60.2348 62.4853 62.4853C60.2349 64.7357 57.1826 66 54 66Z" fill="#00B56A"/>
<path d="M56 46H52V54H56V46Z" fill="#00B56A"/>
<path d="M56 58H52V62H56V58Z" fill="#00B56A"/>
</svg>
