<svg width="76" height="76" viewBox="0 0 76 76" fill="none" xmlns="http://www.w3.org/2000/svg">
<path d="M46.948 51.307C47.2714 48.9352 46.6246 46.5363 45.196 44.7574C44.064 43.3828 42.4199 42.5742 40.6949 42.5742H40.6679C38.9429 42.5742 37.3257 43.3559 36.1937 44.7035C33.6331 47.7762 33.3636 51.8191 35.5199 55.2422C36.3554 56.5898 37.7031 57.5063 39.2664 57.8027C39.6437 57.8836 40.021 57.9105 40.3984 57.9105C41.5574 57.9105 42.6894 57.5602 43.6597 56.8594C45.4386 55.6465 46.6246 53.598 46.948 51.307ZM42.1234 54.7031C41.4496 55.1883 40.614 55.35 39.8054 55.1883C38.9699 55.0266 38.2691 54.5414 37.8109 53.8137C36.3015 51.4148 36.4632 48.5848 38.2691 46.4285C38.889 45.6738 39.7515 45.2695 40.6679 45.2695C41.5843 45.2695 42.4738 45.7008 43.0937 46.4824C44.064 47.6953 44.4953 49.3125 44.2796 50.9566C44.064 52.493 43.2824 53.8676 42.1234 54.7031Z" fill="#00B56A"/>
<path d="M66.1908 58.0159C64.4119 56.0753 61.3662 55.671 59.1291 57.0456C57.2154 58.2046 55.9217 60.28 55.5713 62.7058C55.194 65.2393 55.8678 67.6921 57.4311 69.471C58.644 70.8726 60.2342 71.5733 61.8244 71.5733C62.9295 71.5733 64.0615 71.2229 65.0588 70.5222C66.9186 69.2015 68.1315 67.0722 68.374 64.6733C68.6166 62.1936 67.835 59.7679 66.1908 58.0159ZM65.6787 64.4038C65.517 66.0479 64.7084 67.4765 63.4955 68.339C62.1748 69.2823 60.5846 69.0128 59.4525 67.719C58.4014 66.5331 57.9701 64.862 58.2397 63.1101C58.4822 61.4659 59.3447 60.0913 60.5576 59.3366C61.0158 59.0401 61.5549 58.9054 62.094 58.9054C62.9025 58.9054 63.6572 59.2558 64.2502 59.8757C65.3283 61.0347 65.8674 62.6788 65.6787 64.4038Z" fill="#00B56A"/>
<path d="M60.3461 42.7605C59.7261 42.3562 58.8906 42.5449 58.4863 43.1648L41.7215 69.5519C41.3172 70.1718 41.5058 71.0074 42.1258 71.4117C42.3414 71.5465 42.6109 71.6273 42.8535 71.6273C43.2847 71.6273 43.7429 71.4117 43.9855 71.0074L60.7504 44.6203C61.1547 43.9734 60.966 43.1379 60.3461 42.7605Z" fill="#00B56A"/>
<path d="M21.1793 20.7137C25.5188 20.7137 29.0227 17.1828 29.0227 12.8703C29.0227 8.55781 25.5188 5 21.1793 5C16.8398 5 13.3359 8.53086 13.3359 12.8434C13.3359 17.1559 16.8398 20.7137 21.1793 20.7137ZM21.1793 7.69531C24.0363 7.69531 26.3543 10.0133 26.3543 12.8703C26.3543 15.7273 24.0363 18.0453 21.1793 18.0453C18.3223 18.0453 16.0043 15.7273 16.0043 12.8703C16.0043 10.0133 18.3492 7.69531 21.1793 7.69531Z" fill="#00B56A"/>
<path d="M30.6676 31.4154C29.9398 31.3615 29.293 31.9275 29.2391 32.6552L28.0262 50.3095C28.0262 50.3634 27.9992 50.4174 27.9992 50.4443L26.8672 67.5865C26.8133 68.3412 26.1934 68.9072 25.4656 68.9072H16.9215C16.1668 68.9072 15.5469 68.3142 15.493 67.5865L14.3879 50.4443C14.3609 49.8783 13.9836 49.4201 13.4445 49.2584C11.8273 48.7732 11.8273 48.7732 11.6926 46.9674L10.6684 28.774V28.6123C12.6359 28.0193 14.6035 27.3994 16.598 26.7525C17.4605 27.7767 18.35 28.8009 19.2934 29.8521L20.1828 30.8494C20.4254 31.1459 20.8027 31.3076 21.1801 31.3076C21.5574 31.3076 21.9348 31.1459 22.1773 30.8494L23.2555 29.6365C24.118 28.6662 24.9266 27.7228 25.7352 26.7795C25.7621 26.7795 25.7891 26.7795 25.843 26.7795L39.05 29.7713C39.2387 29.8252 39.4273 29.8252 39.616 29.7713L51.5023 27.3455C52.2301 27.1838 52.6883 26.483 52.5535 25.7552C52.3918 25.0275 51.691 24.5424 50.9633 24.7041L39.3734 27.0759L26.3281 24.0841C26.2742 24.0841 26.2203 24.0572 26.1395 24.0572C25.8969 24.0302 24.5762 23.9763 23.8215 24.8658C22.9859 25.8631 22.1504 26.8064 21.2609 27.8306L21.207 27.9115C20.2906 26.8873 19.4281 25.89 18.5656 24.8927C17.8648 24.0572 16.9484 23.7877 15.9512 24.1381C13.9297 24.7849 11.9082 25.4318 9.88672 26.0517C8.67383 26.4291 8 27.3455 8 28.5853C8 28.6931 8 28.9088 8 28.9088L8.99727 46.8595L9.02422 47.156C9.21289 49.8783 9.67109 50.7408 11.7734 51.5224L12.8516 67.7752C12.9863 69.9314 14.7922 71.6295 16.9484 71.6295H25.4926C27.6488 71.6295 29.4547 69.9314 29.5895 67.7752L30.6945 50.7408C30.6945 50.6869 30.6945 50.6599 30.7215 50.606L31.9344 32.817C31.9613 32.0892 31.3953 31.4424 30.6676 31.4154Z" fill="#00B56A"/>
</svg>
