<svg width="76" height="76" viewBox="0 0 76 76" fill="none" xmlns="http://www.w3.org/2000/svg">
<path fill-rule="evenodd" clip-rule="evenodd" d="M66.125 61.1654H9.91667C6.64919 61.1654 4 58.5162 4 55.2487V19.7487C4 16.4812 6.64919 13.832 9.91667 13.832H66.125C69.3925 13.832 72.0417 16.4812 72.0417 19.7487V55.2487C72.0417 58.5162 69.3925 61.1654 66.125 61.1654ZM6.95833 33.0612H69.0833V27.1445H6.95833V33.0612ZM69.0833 19.7487C69.0833 18.1157 67.758 16.7904 66.125 16.7904H9.91667C8.28367 16.7904 6.95833 18.1157 6.95833 19.7487V24.1862H69.0833V19.7487ZM69.0833 36.0195H6.95833V55.2487C6.95833 56.8817 8.28367 58.207 9.91667 58.207H66.125C67.758 58.207 69.0833 56.8817 69.0833 55.2487V36.0195ZM40.9792 44.8945H35.0625C34.2445 44.8945 33.5833 44.2333 33.5833 43.4154C33.5833 42.5989 34.2445 41.9362 35.0625 41.9362H40.9792C41.7971 41.9362 42.4583 42.5989 42.4583 43.4154C42.4583 44.2333 41.7971 44.8945 40.9792 44.8945ZM27.6667 44.8945H14.3542C13.5362 44.8945 12.875 44.2333 12.875 43.4154C12.875 42.5989 13.5362 41.9362 14.3542 41.9362H27.6667C28.4846 41.9362 29.1458 42.5989 29.1458 43.4154C29.1458 44.2333 28.4846 44.8945 27.6667 44.8945ZM14.3542 49.332H23.2292C24.0471 49.332 24.7083 49.9947 24.7083 50.8112C24.7083 51.6292 24.0471 52.2904 23.2292 52.2904H14.3542C13.5362 52.2904 12.875 51.6292 12.875 50.8112C12.875 49.9947 13.5362 49.332 14.3542 49.332Z" fill="#00B56A"/>
<line x1="5.46278" y1="68.9393" x2="69.4628" y2="4.93934" stroke="#00B56A" stroke-width="3"/>
</svg>
