<svg width="76" height="76" viewBox="0 0 76 76" fill="none" xmlns="http://www.w3.org/2000/svg">
<g clip-path="url(#clip0_363_20)">
<path fill-rule="evenodd" clip-rule="evenodd" d="M67.5 3.18094C66.9825 3.46219 66.4988 3.90656 66.0825 4.51125C65.2613 5.71781 64.6875 7.65281 64.6875 9.84375C64.6875 9.84656 64.6875 28.125 64.6875 28.125H56.25C56.25 28.125 56.25 21.0966 56.25 21.0938C56.2444 11.7422 48.8587 6.15938 39.375 5.66156V1.40625C39.375 0.63 38.745 0 37.9688 0C37.1925 0 36.5625 0.63 36.5625 1.40625V5.66156C27.0816 6.15938 19.6959 11.745 19.6875 21.0938C19.6875 21.0994 19.6875 28.125 19.6875 28.125H11.25C11.25 28.125 11.25 9.93094 11.25 9.84375C11.25 7.65281 10.6988 5.71781 9.8775 4.51125C9.45563 3.89813 8.96344 3.44812 8.4375 3.16687V1.40625C8.4375 0.63 7.8075 0 7.03125 0C6.255 0 5.625 0.63 5.625 1.40625V3.19219C5.11594 3.47344 4.63781 3.915 4.23281 4.51125C3.4425 5.66719 2.8575 7.77375 2.8125 9.855C2.79562 9.94219 2.8125 62.1141 2.8125 62.1141C1.17281 62.6934 0 64.2572 0 66.0938V74.5312C0 75.3075 0.63 75.9375 1.40625 75.9375H74.5312C75.3075 75.9375 75.9375 75.3075 75.9375 74.5312V66.0938C75.9375 64.2572 74.7647 62.6934 73.125 62.1141C73.125 62.1141 73.125 9.84656 73.125 9.84375C73.1222 7.65563 72.5484 5.715 71.73 4.51125C71.3137 3.90656 70.83 3.46219 70.3125 3.18094V1.40625C70.3125 0.63 69.6825 0 68.9062 0C68.13 0 67.5 0.63 67.5 1.40625V3.18094V3.18094ZM4.21875 64.6875H30.9375V73.125H2.8125V66.0938C2.8125 65.3175 3.4425 64.6875 4.21875 64.6875ZM42.1875 73.125V63.2812C42.1875 60.9553 40.3172 59.0625 37.9912 59.0625C35.6625 59.0625 33.75 60.9525 33.75 63.2812V63.2925V73.125H42.1875ZM71.7188 64.6875H45V73.125H73.125V66.0938C73.125 65.3175 72.495 64.6875 71.7188 64.6875ZM70.3125 53.4375H53.4375V57.7294V61.875H70.3125V53.4375ZM5.625 61.875H22.5V53.4375H5.625V61.875ZM44.8594 61.875H50.625V53.4375H25.3125V61.875H31.0781C31.7363 58.6688 34.5937 56.25 37.9912 56.25C41.3916 56.25 44.2125 58.6659 44.8594 61.875V61.875ZM66.0938 56.25H57.6562C56.88 56.25 56.25 56.88 56.25 57.6562C56.25 58.4325 56.88 59.0625 57.6562 59.0625H66.0938C66.87 59.0625 67.5 58.4325 67.5 57.6562C67.5 56.88 66.87 56.25 66.0938 56.25ZM18.3038 56.25H9.86625C9.09 56.25 8.46 56.88 8.46 57.6562C8.46 58.4325 9.09 59.0625 9.86625 59.0625H18.3038C19.08 59.0625 19.71 58.4325 19.71 57.6562C19.71 56.88 19.08 56.25 18.3038 56.25ZM22.5 50.625H28.125V49.2188C28.125 48.4453 28.7606 47.8181 29.5312 47.8125H22.5V50.625ZM46.4175 47.8125C47.1881 47.8181 47.8125 48.4453 47.8125 49.2188V50.625H53.4375V47.8125H46.4175ZM70.3125 47.8125H56.25V50.625H70.3125V47.8125ZM37.9772 47.8125C38.7506 47.8181 39.375 48.4453 39.375 49.2188V50.625H45V49.2188C45 48.4453 45.6244 47.8181 46.395 47.8125H37.9772ZM29.5312 47.8125C30.3019 47.8181 30.9375 48.4453 30.9375 49.2188V50.625H36.5625V49.2188C36.5625 48.4453 37.1869 47.8181 37.9603 47.8125H29.5312ZM18.2897 47.8125H5.625V50.625H19.6875V47.8125H18.2897ZM53.4375 28.125H22.5V35.1562C22.5 35.1619 22.5 35.1675 22.5 35.1703V45H22.5647C23.2341 37.7972 29.0925 34.1831 36.5625 33.7866V32.3438C36.5625 31.5675 37.1925 30.9375 37.9688 30.9375C38.745 30.9375 39.375 31.5675 39.375 32.3438V33.7866C46.845 34.1831 52.7034 37.7972 53.3728 45H53.4375C53.4375 37.9463 53.4375 28.125 53.4375 28.125ZM50.5406 45C49.8066 39.0966 44.3897 36.5625 37.9688 36.5625C31.5478 36.5625 26.1309 39.0966 25.3969 45H50.5406ZM63.2812 36.5625H56.25V45H56.3906C56.9503 42.2466 59.1216 40.0753 61.875 39.5156V37.9688C61.875 37.1925 62.505 36.5625 63.2812 36.5625ZM19.5469 45H19.6875V36.5625H12.6787C13.455 36.5625 14.085 37.1925 14.085 37.9688V39.5213C16.8272 40.0866 18.9872 42.255 19.5469 45ZM67.2581 45C66.6787 43.3631 65.1178 42.1875 63.2812 42.1875C61.4447 42.1875 59.8837 43.3631 59.3016 45H67.2581ZM16.6359 45C16.0537 43.3631 14.4928 42.1875 12.6562 42.1875C10.8197 42.1875 9.25875 43.3631 8.67656 45H16.6359ZM70.3125 36.5625H63.2812C64.0575 36.5625 64.6875 37.1925 64.6875 37.9688V39.5156C67.4409 40.0753 69.6122 42.2466 70.1719 45H70.3125V36.5625ZM12.6787 36.5625H5.625V45H5.76563C6.32813 42.2381 8.50781 40.0641 11.2725 39.51V37.9688C11.2725 37.1925 11.9025 36.5625 12.6787 36.5625ZM70.3125 11.25V33.75H67.5V11.25H70.3125ZM19.6875 30.9375V33.75C19.6566 33.75 11.25 33.75 11.25 33.75V30.9375H19.6875ZM8.4375 11.25V33.75H5.625V11.25H8.4375ZM56.25 33.75V30.9375H64.6875V33.75C64.6875 33.75 56.2697 33.75 56.25 33.75ZM53.4375 25.3125V22.5H22.5V25.3125H25.3125V23.9062C25.3125 23.13 25.9425 22.5 26.7188 22.5C27.495 22.5 28.125 23.13 28.125 23.9062V25.3125H30.9375V23.9062C30.9375 23.13 31.5675 22.5 32.3438 22.5C33.12 22.5 33.75 23.13 33.75 23.9062V25.3125H36.5625V23.9062C36.5625 23.13 37.1925 22.5 37.9688 22.5C38.745 22.5 39.375 23.13 39.375 23.9062V25.3125H42.1875V23.9091C42.1875 23.1328 42.8175 22.5028 43.5938 22.5028C44.37 22.5028 45 23.1328 45 23.9091V25.3125H47.8125V23.9062C47.8125 23.13 48.4425 22.5 49.2188 22.5C49.995 22.5 50.625 23.13 50.625 23.9062V25.3125H53.4375ZM53.3672 19.6875C52.6106 12.3919 45.945 8.4375 37.9688 8.4375C29.9925 8.4375 23.3269 12.3919 22.5703 19.6875H53.3672ZM70.2113 8.4375C70.1016 7.695 69.9047 7.03125 69.6375 6.49687C69.5025 6.22969 69.3563 5.99906 69.1847 5.82188C69.0947 5.72625 69.0187 5.625 68.9062 5.625C68.7966 5.625 68.7178 5.72625 68.6278 5.82188C68.4562 5.99906 68.31 6.22969 68.175 6.49687C67.9078 7.03125 67.7109 7.695 67.6012 8.4375H70.2113V8.4375ZM7.05375 5.63625C6.94687 5.63906 6.86531 5.72906 6.77531 5.82188C6.60375 5.99906 6.4575 6.22969 6.3225 6.49687C6.05531 7.03125 5.85844 7.695 5.74875 8.4375H8.35875C8.24906 7.695 8.05219 7.03125 7.785 6.49687C7.65 6.22969 7.50375 5.99906 7.33219 5.82188C7.24219 5.72906 7.16344 5.63625 7.05375 5.63625V5.63625Z" fill="#00B56A"/>
</g>
<defs>
<clipPath id="clip0_363_20">
<rect width="76" height="76" fill="white"/>
</clipPath>
</defs>
</svg>
