<svg width="57" height="62" viewBox="0 0 57 62" fill="none" xmlns="http://www.w3.org/2000/svg">
<path d="M31.8163 22.3082C33.622 22.3082 33.622 25.0531 31.8163 25.0531H29.8248V30.0799H30.9889C33.1716 30.0799 34.9521 31.8604 34.9521 34.0431V36.6333C34.9521 38.816 33.1716 40.5965 30.9889 40.5965H29.8248V41.9227C29.8248 43.7283 27.0799 43.7283 27.0799 41.9227V40.5965H25.0883C23.2827 40.5965 23.2827 37.8516 25.0883 37.8516H27.0799V32.8248H25.9158C23.7377 32.8248 21.9525 31.0409 21.9525 28.8616V26.2714C21.9525 24.0887 23.7331 22.3082 25.9158 22.3082H27.0799V20.982C27.0799 20.224 27.6944 19.6096 28.4523 19.6096C29.2103 19.6096 29.8248 20.224 29.8248 20.982V22.3082H31.8163V22.3082ZM44.1393 31.4523C44.1393 29.6467 46.8842 29.6467 46.8842 31.4523C46.8842 41.6323 38.6323 49.8842 28.4523 49.8842C26.6467 49.8842 26.6467 47.1393 28.4523 47.1393C37.1163 47.1393 44.1393 40.1163 44.1393 31.4523V31.4523ZM12.7654 31.4523C12.7654 33.258 10.0205 33.258 10.0205 31.4523C10.0205 21.2724 18.2724 13.0205 28.4523 13.0205C30.258 13.0205 30.258 15.7654 28.4523 15.7654C19.7884 15.7654 12.7654 22.7884 12.7654 31.4523V31.4523ZM28.4523 4C43.6135 4 55.9047 16.2912 55.9047 31.4523C55.9047 46.6135 43.6135 58.9047 28.4523 58.9047C13.2912 58.9047 1 46.6135 1 31.4523C1 16.2912 13.2912 4 28.4523 4V4ZM28.4523 6.74557C14.8072 6.74557 3.74557 17.8072 3.74557 31.4523C3.74557 45.0975 14.8065 56.1591 28.4523 56.1591C42.0981 56.1591 53.1591 45.0981 53.1591 31.4523C53.1591 17.8065 42.0975 6.74557 28.4523 6.74557V6.74557ZM27.0799 25.0531H25.9158C25.2491 25.0531 24.6981 25.604 24.6981 26.2714V28.8616C24.6981 29.5329 25.2464 30.0799 25.9158 30.0799H27.0799V25.0531ZM29.8248 37.8516H30.9889C31.6556 37.8516 32.2066 37.3006 32.2066 36.6333V34.0431C32.2066 33.3764 31.6556 32.8248 30.9889 32.8248H29.8248V37.8516Z" fill="#00B56A" stroke="#00B56A"/>
</svg>
