<svg width="57" height="62" viewBox="0 0 57 62" fill="none" xmlns="http://www.w3.org/2000/svg">
<path fill-rule="evenodd" clip-rule="evenodd" d="M45.375 61.375H11.25C8.35069 61.375 6 59.0243 6 56.125V6.25C6 3.35069 8.35069 1 11.25 1H36.1521C36.1547 1 36.1586 1 36.1612 1H36.1875C36.6075 1 36.9658 1.21131 37.206 1.51844L50.1066 14.419C50.415 14.6592 50.625 15.0175 50.625 15.4375V15.4651C50.625 15.4677 50.625 15.469 50.625 15.4716V56.125C50.625 59.0243 48.2743 61.375 45.375 61.375ZM37.5 5.43756V14.125H46.1874L37.5 5.43756ZM48 16.75H36.1875C35.4617 16.75 34.875 16.162 34.875 15.4375V3.625H11.25C9.801 3.625 8.625 4.801 8.625 6.25V56.125C8.625 57.574 9.801 58.75 11.25 58.75H45.375C46.824 58.75 48 57.574 48 56.125V16.75ZM40.125 50.875H16.5C15.7742 50.875 15.1875 50.2883 15.1875 49.5625C15.1875 48.838 15.7742 48.25 16.5 48.25H40.125C40.8508 48.25 41.4375 48.838 41.4375 49.5625C41.4375 50.2883 40.8508 50.875 40.125 50.875ZM40.125 40.375H16.5C15.7742 40.375 15.1875 39.7883 15.1875 39.0625C15.1875 38.338 15.7742 37.75 16.5 37.75H40.125C40.8508 37.75 41.4375 38.338 41.4375 39.0625C41.4375 39.7883 40.8508 40.375 40.125 40.375ZM40.125 29.875H16.5C15.7742 29.875 15.1875 29.2883 15.1875 28.5625C15.1875 27.838 15.7742 27.25 16.5 27.25H40.125C40.8508 27.25 41.4375 27.838 41.4375 28.5625C41.4375 29.2883 40.8508 29.875 40.125 29.875Z" fill="#00B56A" stroke="#00B56A"/>
</svg>
