<svg width="57" height="62" viewBox="0 0 57 62" fill="none" xmlns="http://www.w3.org/2000/svg">
<path d="M56.25 31.8359C56.25 28.0859 53.3203 26.0938 49.2188 26.0938H37.3828C38.2031 22.9297 38.6719 19.8828 38.6719 17.3047C38.6719 7.10938 35.8594 5 33.3984 5C31.7578 5 30.5859 5.11719 28.9453 6.17188C28.4766 6.40625 28.2422 6.875 28.125 7.34375L26.3672 16.8359C24.4922 21.875 19.6875 26.2109 15.8203 29.1406V54.2188C17.1094 54.2188 18.75 54.9219 20.2734 55.7422C22.1484 56.6797 24.1406 57.6172 26.3672 57.6172H43.125C46.6406 57.6172 49.2188 54.8047 49.2188 52.3437C49.2188 51.875 49.2188 51.4062 49.1016 51.0547C51.3281 50.2344 52.7344 48.3594 52.7344 46.25C52.7344 45.1953 52.5 44.2578 52.1484 43.5547C53.4375 42.6172 54.8438 41.0938 54.8438 39.2188C54.8438 38.2813 54.375 37.1094 53.6719 36.2891C55.1953 35.1172 56.25 33.4766 56.25 31.8359ZM52.6172 31.8359C52.6172 34.0625 50.2734 34.2969 49.9219 35.3516C49.5703 36.5234 51.3281 36.9922 51.3281 39.1016C51.3281 41.3281 48.6328 41.3281 48.2812 42.3828C47.8125 43.6719 49.1016 44.1406 49.1016 46.25C49.1016 46.3672 49.1016 46.4844 49.1016 46.6016C48.75 48.3594 46.0547 48.4766 45.5859 49.1797C45.1172 50 45.7031 50.4687 45.7031 52.3437C45.7031 53.3984 44.5312 54.1016 43.125 54.1016H26.3672C25.0781 54.1016 23.4375 53.3984 21.9141 52.5781C20.5078 51.875 19.1016 51.1719 17.5781 50.8203V32.1875C21.9141 28.9063 27.5391 23.8672 29.7656 17.7734C29.7656 17.6562 29.7656 17.5391 29.8828 17.5391L31.5234 8.75001C32.1094 8.51564 32.5781 8.51562 33.5156 8.51562C33.8672 8.51562 35.2734 10.625 35.2734 17.3047C35.2734 19.8828 34.8047 22.8125 33.8672 26.0938H33.3984C32.4609 26.0938 31.6406 26.9141 31.6406 27.8516C31.6406 28.7891 32.4609 29.6094 33.3984 29.6094H49.2188C50.9766 29.6094 52.6172 30.4297 52.6172 31.8359Z" fill="#00B56A"/>
<path d="M14.0625 57.7344H3.51562C1.52344 57.7344 0 56.2109 0 54.2188V29.6094C0 27.6172 1.52344 26.0938 3.51562 26.0938H14.0625C16.0547 26.0938 17.5781 27.6172 17.5781 29.6094V54.2188C17.5781 56.2109 16.0547 57.7344 14.0625 57.7344ZM3.51562 29.6094V54.2188H14.0625V29.6094H3.51562Z" fill="#00B56A"/>
</svg>
