<svg width="75" height="75" viewBox="0 0 75 75" fill="none" xmlns="http://www.w3.org/2000/svg">
<path d="M65.2982 49.2305L61.7435 40.3464C61.8902 40.3362 62.0324 40.2911 62.1581 40.2147C62.2838 40.1384 62.3895 40.0331 62.4662 39.9076L65.2318 35.2982C65.295 35.193 65.3366 35.0762 65.354 34.9547C65.3715 34.8333 65.3645 34.7095 65.3335 34.5908C65.3025 34.472 65.2481 34.3606 65.1735 34.2632C65.0989 34.1657 65.0056 34.0842 64.899 34.0233L61.6725 32.1795V24.6828C61.6693 23.7188 61.3633 22.7803 60.7977 21.9996C60.2321 21.219 59.4356 20.6358 58.5206 20.3325C59.5156 19.4713 60.2235 18.3266 60.5495 17.0517C60.8754 15.7768 60.8039 14.4328 60.3444 13.1997C59.8849 11.9667 59.0594 10.9036 57.9786 10.1529C56.8978 9.40228 55.6134 9 54.2975 9C52.9816 9 51.6971 9.40228 50.6163 10.1529C49.5356 10.9036 48.7101 11.9667 48.2506 13.1997C47.7911 14.4328 47.7195 15.7768 48.0455 17.0517C48.3715 18.3266 49.0794 19.4713 50.0744 20.3325C49.1601 20.6365 48.3643 21.2199 47.7994 22.0005C47.2346 22.781 46.9291 23.7193 46.9262 24.6828V28.3215L41.5894 35.1793C41.4515 35.3566 41.383 35.5782 41.3969 35.8025C41.4108 36.0267 41.5062 36.2382 41.665 36.3971L42.1822 36.9143L35.4285 43.667L29.5626 37.8002C29.0357 37.2973 28.3353 37.0168 27.6069 37.0168C26.8785 37.0168 26.1781 37.2973 25.6511 37.8002L11.3095 52.1418L9.68241 53.7707C9.46683 53.9844 9.29557 54.2385 9.17847 54.5185C9.06136 54.7985 9.00071 55.0989 9.00001 55.4024C8.9993 55.7059 9.05855 56.0065 9.17435 56.2871C9.29015 56.5676 9.46022 56.8225 9.6748 57.0372C9.88938 57.2518 10.1442 57.422 10.4248 57.5378C10.7053 57.6537 11.0059 57.713 11.3094 57.7124C11.6129 57.7118 11.9133 57.6512 12.1933 57.5342C12.4734 57.4172 12.7275 57.246 12.9412 57.0305L13.9193 56.0524L17.8299 59.9639L16.85 60.942C16.421 61.3749 16.1809 61.9602 16.1823 62.5697C16.1837 63.1791 16.4265 63.7633 16.8576 64.1942C17.2886 64.6251 17.8728 64.8677 18.4823 64.869C19.0918 64.8702 19.6769 64.63 20.1097 64.2008L21.7396 62.5719L36.0812 48.2303C36.4823 47.8255 36.7486 47.3067 36.8437 46.7448C36.9387 46.183 36.8579 45.6055 36.6122 45.0913L43.4857 38.2178L45.3525 40.0846C45.5254 40.2575 45.7598 40.3546 46.0043 40.3547C46.0236 40.3547 46.043 40.3547 46.0624 40.3547C46.193 40.3466 46.3204 40.3107 46.4362 40.2495C46.5519 40.1883 46.6532 40.1032 46.7335 39.9998L47.4065 39.1314C47.7778 40.4057 48.3612 41.6084 49.1322 42.6889L46.9879 51.9703L41.5489 60.1271C41.4208 60.319 41.3693 60.552 41.4046 60.78C41.4399 61.008 41.5595 61.2145 41.7397 61.3587L46.3491 65.0462C46.5134 65.1758 46.7168 65.246 46.9262 65.2453C47.0716 65.2453 47.215 65.2109 47.3446 65.1449C47.4743 65.0789 47.5864 64.9832 47.672 64.8655L55.047 54.7249C55.1077 54.6409 55.1542 54.5475 55.1843 54.4483L56.4454 50.2556L57.9887 51.7988V63.4016C57.9887 63.6461 58.0858 63.8805 58.2587 64.0534C58.4316 64.2263 58.666 64.3234 58.9105 64.3234H64.4418C64.6863 64.3234 64.9208 64.2263 65.0936 64.0534C65.2665 63.8805 65.3637 63.6461 65.3637 63.4016V49.5734C65.3636 49.456 65.3414 49.3397 65.2982 49.2305V49.2305ZM11.6359 55.727C11.5493 55.8134 11.432 55.8619 11.3097 55.8618C11.1873 55.8617 11.0701 55.813 10.9836 55.7265C10.8972 55.6399 10.8487 55.5226 10.8488 55.4003C10.8488 55.3397 10.8608 55.2798 10.884 55.2238C10.9072 55.1679 10.9412 55.1171 10.9841 55.0743L11.9613 54.0971L12.614 54.7488L11.6359 55.727ZM18.1544 62.8973C18.068 62.8109 18.0195 62.6936 18.0195 62.5714C18.0195 62.4492 18.068 62.332 18.1544 62.2455L19.1316 61.2674L19.7843 61.9192L18.809 62.8973C18.7661 62.9405 18.7151 62.9748 18.659 62.9982C18.6028 63.0216 18.5426 63.0336 18.4817 63.0336C18.4209 63.0336 18.3606 63.0216 18.3044 62.9982C18.2483 62.9748 18.1973 62.9405 18.1544 62.8973V62.8973ZM34.7768 46.9267L21.0878 60.6157L13.2648 52.7935L26.9547 39.1046C27.1302 38.9368 27.3636 38.8432 27.6064 38.8432C27.8492 38.8432 28.0827 38.9368 28.2582 39.1046L34.7768 45.6223C34.8625 45.7079 34.9305 45.8096 34.9769 45.9215C35.0233 46.0334 35.0471 46.1534 35.0471 46.2745C35.0471 46.3957 35.0233 46.5156 34.9769 46.6275C34.9305 46.7394 34.8625 46.8411 34.7768 46.9267ZM49.6918 15.4641C49.6918 14.5524 49.9621 13.6612 50.4686 12.9032C50.9751 12.1452 51.695 11.5544 52.5372 11.2056C53.3795 10.8567 54.3063 10.7654 55.2004 10.9433C56.0945 11.1211 56.9158 11.5601 57.5605 12.2047C58.2051 12.8494 58.6441 13.6707 58.822 14.5648C58.9998 15.459 58.9085 16.3857 58.5597 17.228C58.2108 18.0702 57.62 18.7901 56.862 19.2966C56.104 19.8031 55.2128 20.0734 54.3012 20.0734C53.0791 20.072 51.9076 19.5859 51.0435 18.7218C50.1793 17.8577 49.6932 16.6861 49.6918 15.4641V15.4641ZM45.9167 38.0417L43.5447 35.6688L46.9262 31.3203V35.773C46.9262 36.0781 46.9483 36.3805 46.9704 36.6819L45.9167 38.0417ZM53.4632 53.767L46.7482 63.0005L43.553 60.4442L48.615 52.8507C48.6767 52.758 48.721 52.655 48.7459 52.5465L50.621 44.434L54.9649 48.7779L53.4632 53.767ZM63.5199 62.4797H59.8324V51.4172C59.8324 51.1727 59.7352 50.9383 59.5623 50.7654L51.7356 42.9387C50.7921 41.9996 50.0442 40.8828 49.5352 39.6528C49.0261 38.4228 48.766 37.1041 48.7699 35.773V24.6828C48.7699 23.9493 49.0613 23.2459 49.5799 22.7272C50.0986 22.2086 50.802 21.9172 51.5355 21.9172H57.0668C57.8003 21.9172 58.5037 22.2086 59.0224 22.7272C59.541 23.2459 59.8324 23.9493 59.8324 24.6828V31.1276L58.752 30.51L57.0198 25.3134L55.2682 25.896L57.112 31.4273C57.1838 31.6425 57.3325 31.8237 57.5296 31.9361L63.165 35.1562L61.3212 38.2261L55.0055 35.0687L51.4526 27.0742L49.7674 27.8227L53.4549 36.1196C53.5417 36.3153 53.6939 36.4747 53.8854 36.5704L59.8324 39.5416V40.3547C59.8325 40.4721 59.8547 40.5885 59.8979 40.6976L63.5199 49.7504V62.4797Z" fill="#BBBABA" stroke="#BBBABA"/>
</svg>
