<svg width="75" height="75" viewBox="0 0 75 75" fill="none" xmlns="http://www.w3.org/2000/svg">
<path d="M21.3125 11H55.6725L55.6739 30.7638" stroke="#BBBABA" stroke-width="3" stroke-linecap="round" stroke-linejoin="round"/>
<path d="M43.6393 60.8412L17 60.8398L17 15.2983L44.4976 15.2969L51.3723 22.1717L51.3736 44.5135" stroke="#BBBABA" stroke-width="3" stroke-linejoin="round"/>
<path d="M44.5 15.2969V22.1718H51.375" stroke="#BBBABA" stroke-width="3" stroke-linejoin="round"/>
<path d="M22.1641 20.4531H24.7184" stroke="#BBBABA" stroke-linecap="round" stroke-linejoin="round"/>
<path d="M22.1641 23.8907L29.4443 23.8906" stroke="#BBBABA" stroke-linecap="round" stroke-linejoin="round"/>
<path d="M32.9062 41.9376L44.4833 41.9375" stroke="#BBBABA" stroke-linecap="round" stroke-linejoin="round"/>
<path d="M41.0461 48.8125H27.3203" stroke="#BBBABA" stroke-linecap="round" stroke-linejoin="round"/>
<path d="M23.8828 41.9375L29.874 41.9376" stroke="#BBBABA" stroke-linecap="round" stroke-linejoin="round"/>
<path d="M41.9297 45.3754L44.4833 45.375" stroke="#BBBABA" stroke-linecap="round" stroke-linejoin="round"/>
<path d="M23.8828 45.375L31.163 45.3754" stroke="#BBBABA" stroke-linecap="round" stroke-linejoin="round"/>
<path d="M34.1953 45.3751L38.8974 45.375" stroke="#BBBABA" stroke-linecap="round" stroke-linejoin="round"/>
<path d="M27.75 20.4531H29.4451" stroke="#BBBABA" stroke-linecap="round" stroke-linejoin="round"/>
<path d="M30.3037 31.625L23.8828 31.6251" stroke="#BBBABA" stroke-linecap="round" stroke-linejoin="round"/>
<path d="M44.4755 31.6251L41.9219 31.625" stroke="#BBBABA" stroke-linecap="round" stroke-linejoin="round"/>
<path d="M38.8977 31.625H33.3359" stroke="#BBBABA" stroke-linecap="round" stroke-linejoin="round"/>
<path d="M35.4599 35.0626L23.8828 35.0625" stroke="#BBBABA" stroke-linecap="round" stroke-linejoin="round"/>
<path d="M44.4833 35.0625H38.4922" stroke="#BBBABA" stroke-linecap="round" stroke-linejoin="round"/>
<path d="M26.4365 38.5001L23.8828 38.5" stroke="#BBBABA" stroke-linecap="round" stroke-linejoin="round"/>
<path d="M44.4833 38.5L37.2031 38.5001" stroke="#BBBABA" stroke-linecap="round" stroke-linejoin="round"/>
<path d="M34.1708 38.5H29.4688" stroke="#BBBABA" stroke-linecap="round" stroke-linejoin="round"/>
<path d="M58.0536 49.9581C55.5299 49.9581 53.117 48.9211 51.3772 47.0938C49.591 48.9287 47.2356 49.9429 44.7035 49.9581C43.1121 62.0527 51.3776 64.2806 51.3776 64.2806C51.3776 64.2806 59.6432 62.0527 58.0536 49.9581Z" stroke="#BBBABA" stroke-width="3" stroke-linejoin="round"/>
<path d="M55.6719 46.6636L55.6753 29.0469" stroke="#BBBABA" stroke-width="3"/>
</svg>
