<svg width="75" height="75" viewBox="0 0 75 75" fill="none" xmlns="http://www.w3.org/2000/svg">
<path d="M63.3125 33.0545L37.1562 16.5508L11 33.0545" stroke="#00B56A" stroke-width="3" stroke-linecap="round" stroke-linejoin="round"/>
<path d="M55.8934 28.3711V63.0366H18.4141V28.3711" stroke="#00B56A" stroke-width="3" stroke-linecap="round" stroke-linejoin="round"/>
<path d="M52.0469 25.9442V11H42.7656V20.0872" stroke="#00B56A" stroke-width="3" stroke-linecap="round" stroke-linejoin="round"/>
<path d="M30.625 47.5088C30.6247 48.8007 31.0076 50.0638 31.7252 51.1381C32.4427 52.2125 33.4628 53.05 34.6564 53.5446C35.8499 54.0392 37.1633 54.1687 38.4305 53.9169C39.6977 53.665 40.8617 53.043 41.7754 52.1295C42.689 51.216 43.3113 50.0521 43.5635 48.785C43.8156 47.5179 43.6863 46.2044 43.192 45.0108C42.6976 43.8171 41.8604 42.7969 40.7862 42.0791C39.712 41.3613 38.449 40.9781 37.157 40.9781C35.8651 40.9781 34.6022 40.595 33.528 39.8773C32.4538 39.1595 31.6166 38.1394 31.1222 36.9458C30.6278 35.7522 30.4985 34.4389 30.7505 33.1718C31.0026 31.9047 31.6247 30.7408 32.5382 29.8273C33.4517 28.9137 34.6156 28.2916 35.8827 28.0396C37.1498 27.7875 38.4632 27.9169 39.6567 28.4113C40.8503 28.9057 41.8705 29.7429 42.5882 30.8171C43.306 31.8913 43.6891 33.1542 43.6891 34.4461" stroke="#00B56A" stroke-width="3" stroke-linecap="round" stroke-linejoin="round"/>
<path d="M37.1562 57.1784V24.7812" stroke="#00B56A" stroke-width="3" stroke-linecap="round" stroke-linejoin="round"/>
</svg>
