<svg width="75" height="75" viewBox="0 0 75 75" fill="none" xmlns="http://www.w3.org/2000/svg">
<path d="M47.9375 43.625H45.6519L44.8613 42.8344C47.6788 39.5713 49.375 35.3306 49.375 30.6875C49.375 20.3663 41.0087 12 30.6875 12C20.3663 12 12 20.3663 12 30.6875C12 41.0087 20.3663 49.375 30.6875 49.375C35.3306 49.375 39.5713 47.6788 42.8344 44.8756L43.625 45.6663V47.9375L58 62.2837L62.2837 58L47.9375 43.625ZM30.6875 43.625C23.5431 43.625 17.75 37.8319 17.75 30.6875C17.75 23.5431 23.5431 17.75 30.6875 17.75C37.8319 17.75 43.625 23.5431 43.625 30.6875C43.625 37.8319 37.8319 43.625 30.6875 43.625Z" fill="#00B56A"/>
</svg>
