<svg width="75" height="75" viewBox="0 0 75 75" fill="none" xmlns="http://www.w3.org/2000/svg">
<path d="M31.2346 20.0002C31.229 20.0003 31.2109 20.0031 31.1967 20.0034C31.0578 20.0065 30.5642 20.0184 30.2949 20.0793C29.9938 20.1475 29.6929 20.2403 29.428 20.3989C29.0317 20.6362 28.6976 20.975 28.3902 21.3197C28.1336 21.6073 27.9373 21.9436 27.7257 22.2657C27.6406 22.3952 27.5308 22.5163 27.4852 22.6644C27.4789 22.6848 27.4705 22.7031 27.4662 22.7245C22.5213 22.7385 17.5765 22.7736 12.6331 22.8859C9.66488 22.9851 6.75311 24.4762 5.12797 26.996C4.43159 27.8082 3.98668 28.7676 3.7864 29.8057C2.62868 32.9306 3.12337 36.3369 3.01754 39.5984C2.91923 42.1994 3.46547 44.8151 4.64387 47.1289C6.01392 49.2883 8.06209 51.2148 10.6809 51.6061C14.3497 52.3688 18.1285 51.9357 21.8469 52.0617C23.7222 52.0575 25.5972 52.0588 27.4726 52.0585C27.4758 52.0719 27.4812 52.0835 27.4852 52.0965C27.5308 52.2446 27.6406 52.3657 27.7257 52.4952C27.9373 52.8173 28.1336 53.1536 28.3902 53.4412C28.6976 53.7859 29.0317 54.1247 29.428 54.362C29.6929 54.5206 29.9938 54.6133 30.2949 54.6815C30.5642 54.7425 31.0578 54.7544 31.1967 54.7575C31.2592 54.7703 31.3264 54.7592 31.3707 54.7258C31.415 54.6925 31.429 54.6596 31.4403 54.5834C31.4516 54.5073 31.4402 54.4744 31.3897 54.2829C31.3392 54.0913 31.2185 53.7577 31.0891 53.4539C30.9597 53.1501 30.7449 52.733 30.6018 52.4698C30.5104 52.3016 30.436 52.1744 30.3645 52.0585C32.8043 52.0596 35.2433 52.0596 37.683 52.0617C37.6916 52.073 37.7006 52.0851 37.7115 52.0965C37.7678 52.1558 37.8496 52.2345 38.0057 52.2895C38.1619 52.3445 38.1698 52.3291 38.6449 52.3528C39.12 52.3765 40.3237 52.3681 40.6762 52.3465C41.0287 52.3248 41.0915 52.3193 41.2647 52.2515C41.4046 52.1968 41.5091 52.1705 41.5305 52.0648C45.2476 52.0658 48.9668 52.0615 52.6838 52.0459C52.8205 52.0922 52.8513 52.0802 53.304 52.1028C53.7791 52.1265 54.986 52.1181 55.3385 52.0965C55.6292 52.0786 55.7238 52.0701 55.8447 52.03C58.9158 52.0108 61.9876 51.9818 65.0585 51.9383C67.2059 51.9433 69.34 50.6047 70.0609 48.5401C71.902 43.9981 71.8689 38.9623 71.6809 34.1373C71.4404 30.9869 71.0339 27.6724 69.3268 24.952C67.7972 22.7853 64.8495 22.7214 62.4481 22.7308C60.1867 22.7072 57.926 22.6979 55.6644 22.6929C55.5875 22.6827 55.4938 22.6739 55.3385 22.6644C54.986 22.6427 53.7791 22.6344 53.304 22.658C52.9921 22.6736 52.8874 22.6735 52.8041 22.6865C49.9079 22.6857 47.0117 22.6928 44.1155 22.6929C43.255 22.6975 42.3942 22.6995 41.5337 22.7023C41.5156 22.5907 41.4077 22.5652 41.2647 22.5093C41.0915 22.4416 41.0287 22.4361 40.6762 22.4144C40.3237 22.3928 39.12 22.3844 38.6449 22.4081C38.1698 22.4318 38.1619 22.4163 38.0057 22.4714C37.8496 22.5264 37.7678 22.605 37.7115 22.6644C37.6974 22.6792 37.6835 22.694 37.6735 22.7087C35.2339 22.7118 32.7947 22.7148 30.355 22.7182C30.4296 22.5983 30.5061 22.4671 30.6018 22.291C30.7449 22.0278 30.9597 21.6108 31.0891 21.307C31.2185 21.0032 31.3392 20.6695 31.3897 20.478C31.4402 20.2865 31.4516 20.2536 31.4403 20.1774C31.429 20.1013 31.415 20.0684 31.3707 20.035C31.3404 20.0122 31.2992 20.0018 31.2568 20.0002C31.2496 19.9999 31.2419 19.9999 31.2346 20.0002V20.0002ZM39.553 22.7023C39.643 22.7014 39.7454 22.7014 39.8441 22.7055C39.7037 22.7058 39.5636 22.7052 39.4232 22.7055C39.4679 22.7038 39.5137 22.7028 39.553 22.7023V22.7023ZM65.1218 23.8604C65.752 23.8446 66.4625 23.939 66.8462 24.1357C67.7854 24.6171 68.3486 25.3587 68.5674 26.4043C68.6388 26.7456 68.8089 27.2415 68.9439 27.5086C69.3455 28.303 69.7151 29.4516 69.6812 29.7962L69.6495 30.1157L69.3363 29.8215C69.1641 29.6601 68.8696 29.1962 68.6845 28.79C67.6131 26.4389 66.1824 25.0695 64.0017 24.3034C63.8119 24.2367 63.8133 24.2294 63.9922 24.0977C64.1912 23.9512 64.6316 23.8727 65.1217 23.8604H65.1218ZM31.2125 24.0597C31.4164 24.0585 31.6495 24.0593 31.9086 24.0597C33.6358 24.0631 36.5126 24.1011 39.5277 24.1641L41.6792 24.2084L42.5177 25.5247C42.9783 26.2472 43.3683 26.9074 43.3846 26.9928C43.4139 27.1461 43.4062 27.1458 42.736 27.1352C42.3625 27.1293 41.3889 27.1015 40.575 27.0719C38.2758 26.9883 34.7304 26.6199 32.4908 26.2334L31.5954 26.0816L31.3074 25.6323C31.1489 25.3862 30.854 24.956 30.6525 24.6736C30.451 24.3911 30.2748 24.1305 30.2601 24.0945C30.2528 24.0766 30.6008 24.0636 31.2125 24.0597V24.0597ZM11.0289 24.1325C11.1934 24.1325 11.38 24.1316 11.5921 24.1325C13.8775 24.1419 14.2856 24.3174 13.4115 24.9077C12.9065 25.2487 9.65526 27.2235 8.33949 27.9895C7.22074 28.6408 6.78005 29.0159 6.27969 29.7424C6.07828 30.0348 5.77236 30.3391 5.59625 30.4227C5.26918 30.5779 4.75911 30.6233 4.64387 30.5081C4.60818 30.4724 4.57742 30.1862 4.57742 29.8721C4.57742 29.2622 4.76272 28.8063 5.43172 27.7522C5.98221 26.8848 7.05321 25.6694 7.68769 25.1925C8.01227 24.9485 8.63847 24.6071 9.07988 24.4363C9.77709 24.1664 9.87784 24.1325 11.0289 24.1325V24.1325ZM45.4381 24.2622C45.699 24.2616 46.1095 24.2716 46.7449 24.2875C52.0775 24.4218 55.5459 24.5396 55.5884 24.585C55.6598 24.6609 55.8574 25.8843 55.8574 26.2524C55.8574 26.826 55.9022 26.8098 53.9241 26.9137C52.6006 26.9833 47.5844 27.1396 46.3905 27.1479C46.2743 27.1486 46.1467 26.9181 45.6533 25.819C45.3252 25.0882 45.0338 24.4344 45.0078 24.3666C44.9797 24.2935 45.0033 24.2632 45.4381 24.2622V24.2622ZM58.781 25.0279C58.8961 25.0242 59.0387 25.0324 59.2208 25.0469C59.9343 25.1037 61.6273 25.3438 61.7204 25.4013C61.9203 25.5248 60.8915 25.8898 59.6321 26.1449C58.6947 26.3346 58.5858 26.3458 58.3538 26.2524C58.1383 26.1657 58.0957 25.9051 58.2304 25.4994C58.345 25.1545 58.4356 25.0391 58.781 25.0279ZM21.0147 25.6196C21.3193 25.6196 29.7179 27.4663 31.1745 27.8534C32.1566 28.1145 33.9612 28.7243 35.1834 29.2077C37.9643 30.3075 39.3868 30.6821 40.7901 30.6821C41.8583 30.6821 41.92 30.7105 42.7961 31.6472L43.6979 32.6122V37.3963V42.1835L42.8183 43.1232L41.9418 44.0598L40.2396 44.161C38.897 44.2395 38.1484 44.4124 36.6895 44.9805C33.0539 46.3963 30.6866 47.0867 26.2734 48.0275C23.8107 48.5525 21.6008 49.0269 21.3628 49.0811C21.0141 49.1606 20.8584 49.0383 20.5591 48.4483C20.0988 47.5411 19.0869 44.3831 18.7967 42.946C18.1568 39.7767 18.2071 34.1411 18.898 31.3624C19.5423 28.7711 20.7041 25.6196 21.0147 25.6196V25.6196ZM66.1343 26.6163C66.6713 26.59 66.834 27.0539 67.4189 28.1509C69.0095 31.1343 69.4912 33.7039 69.3426 38.4341C69.2261 42.1451 68.9104 43.5714 67.6245 46.186C66.504 48.4644 66.4746 48.48 64.8212 47.6921C64.0716 47.335 62.953 46.8535 62.3374 46.6227C61.7217 46.3918 61.2173 46.1678 61.2173 46.1259C61.2173 46.084 61.5226 45.4467 61.8944 44.7084C63.0614 42.3911 63.4439 40.549 63.4321 37.3013C63.4203 34.0504 63.077 32.4357 61.9007 30.0999C61.5116 29.3272 61.2216 28.6721 61.2553 28.6445C61.2889 28.6168 62.4468 28.1018 63.8276 27.4991C65.0743 26.9549 65.7166 26.6368 66.1343 26.6163V26.6163ZM4.87484 44.161C4.95208 44.1543 5.04768 44.1676 5.16594 44.1958C5.74477 44.3341 5.82932 44.4009 6.31765 45.0723C6.89702 45.8688 7.22717 46.1324 8.66539 46.9644C10.7967 48.1972 13.6629 49.9931 13.7659 50.1601C13.9865 50.5179 13.7239 50.5778 11.7535 50.5999C10.1266 50.6181 9.81797 50.5964 9.37414 50.4354C7.89025 49.8969 6.7092 48.8924 5.59625 47.2207C4.77714 45.9903 4.5832 45.5405 4.58058 44.8698C4.57866 44.3782 4.64313 44.1813 4.87484 44.161V44.161ZM69.6495 44.6704L69.678 44.9615C69.7124 45.2989 69.3031 46.5785 68.9566 47.2112C68.8272 47.4474 68.6557 47.9503 68.5769 48.3281C68.2416 49.9365 66.9991 50.9342 65.3717 50.9068C65.0468 50.9013 64.6482 50.8666 64.4858 50.8277C64.3233 50.7888 64.1057 50.7087 64.0017 50.6505C63.8246 50.5514 63.8316 50.5386 64.1029 50.429C65.3665 49.9189 66.0616 49.4958 66.7291 48.8375C67.5258 48.0518 68.0269 47.3228 68.675 45.9993C68.9212 45.4966 69.2389 44.9905 69.3837 44.8761L69.6495 44.6704ZM46.2481 47.6225L47.6276 47.6383C49.3023 47.6572 52.5951 47.7727 54.3766 47.8725C55.4381 47.9319 55.699 47.9659 55.7688 48.056C55.8875 48.209 55.8749 48.8135 55.734 49.5494L55.6137 50.1664L55.3037 50.2139C55.0032 50.2593 51.416 50.3658 47.0898 50.4575C45.5909 50.4893 44.97 50.481 44.9888 50.429C45.0035 50.3885 45.2926 49.7406 45.6311 48.9894L46.2481 47.6225V47.6225ZM42.1728 47.651C42.9155 47.6497 43.3973 47.6794 43.3973 47.7491C43.3973 47.8392 41.8811 50.2893 41.7172 50.4638C41.6364 50.5498 39.8739 50.596 32.1965 50.7106L30.1873 50.7423L30.4689 50.3531C30.6248 50.1394 30.9397 49.6759 31.1682 49.3248C31.4216 48.9354 31.6411 48.6735 31.7282 48.654C32.5079 48.4797 35.4864 48.0827 37.3413 47.9041C38.9767 47.7467 40.935 47.6531 42.1728 47.651V47.651ZM58.7177 48.4863C59.0039 48.4903 59.4101 48.5601 59.9643 48.6856C61.3525 49.0002 62.0536 49.3102 61.5907 49.407C61.1445 49.5003 59.8329 49.6611 59.1828 49.7013L58.4836 49.7424L58.3443 49.5146C58.268 49.3892 58.1857 49.1653 58.1608 49.0179C58.0985 48.6487 58.2407 48.4796 58.7177 48.4863V48.4863Z" fill="#00B56A"/>
</svg>
