<svg width="75" height="75" viewBox="0 0 75 75" fill="none" xmlns="http://www.w3.org/2000/svg">
<path d="M4.83588 66.1975C4.49173 66.1975 4.14908 66.0905 3.85988 65.8804C3.34855 65.509 3.09255 64.8796 3.19947 64.2567L3.72424 61.1971L1.50146 59.0304C1.0489 58.5893 0.88604 57.9295 1.08127 57.3286C1.27651 56.7276 1.79614 56.2895 2.42152 56.1985L5.49331 55.7523L6.86708 52.9683C7.14682 52.4017 7.72389 52.043 8.35575 52.043C8.9876 52.043 9.56484 52.4017 9.84441 52.9683L11.2184 55.7523L14.2905 56.1985C14.9159 56.2895 15.4353 56.7276 15.6307 57.3286C15.8261 57.9295 15.6631 58.5893 15.2105 59.0304L12.9876 61.1971L13.5122 64.2567C13.6191 64.8796 13.3629 65.509 12.8516 65.8804C12.3403 66.2517 11.6624 66.3006 11.1033 66.0069L8.35541 64.5622L5.60786 66.0069C5.36531 66.1344 5.10018 66.1975 4.83588 66.1975ZM8.35591 61.0264C8.62137 61.0264 8.88666 61.09 9.12838 61.217L9.67142 61.5025L9.56783 60.8981C9.47536 60.3595 9.65399 59.81 10.0453 59.4285L10.4844 59.0007L9.87745 58.9125C9.33673 58.8338 8.86923 58.4942 8.62751 58.0043L8.35608 57.4542L8.08464 58.0043C7.84276 58.4942 7.37542 58.8338 6.83471 58.9125L6.22792 59.0007L6.66704 59.4285C7.05833 59.81 7.23697 60.3594 7.1445 60.8981L7.0409 61.5024L7.58361 61.217C7.82516 61.09 8.09045 61.0264 8.35591 61.0264Z" fill="#BBBABA"/>
<path d="M24.3203 66.1975C23.9761 66.1975 23.6335 66.0905 23.3443 65.8804C22.8329 65.509 22.5769 64.8796 22.6838 64.2567L23.2086 61.1971L20.9858 59.0304C20.5333 58.5893 20.3704 57.9295 20.5656 57.3286C20.7609 56.7276 21.2805 56.2895 21.9059 56.1985L24.9777 55.7523L26.3515 52.9683C26.6312 52.4017 27.2083 52.043 27.8401 52.043C28.472 52.043 29.0492 52.4017 29.3288 52.9683L30.7027 55.7523L33.7748 56.1985C34.4002 56.2895 34.9197 56.7276 35.1151 57.3286C35.3105 57.9295 35.1475 58.5893 34.6949 59.0304L32.472 61.1971L32.9966 64.2567C33.1035 64.8796 32.8473 65.509 32.336 65.8804C31.8248 66.2517 31.1468 66.3006 30.5877 66.0069L27.8398 64.5622L25.0922 66.0069C24.8497 66.1344 24.5844 66.1975 24.3203 66.1975ZM27.8403 61.0264C28.1057 61.0264 28.371 61.09 28.6128 61.217L29.1558 61.5025L29.0522 60.8981C28.9597 60.3595 29.1384 59.81 29.5297 59.4285L29.9688 59.0007L29.3618 58.9125C28.8211 58.8338 28.3536 58.4942 28.1119 58.0043L27.8405 57.4542L27.569 58.0043C27.3271 58.4942 26.8598 58.8338 26.3191 58.9125L25.7123 59.0007L26.1514 59.4285C26.5427 59.81 26.7213 60.3594 26.6289 60.8981L26.5253 61.5024L27.068 61.217C27.3095 61.09 27.5748 61.0264 27.8403 61.0264Z" fill="#BBBABA"/>
<path d="M50.8369 66.1975C50.5726 66.1975 50.3075 66.1344 50.0646 66.0069L47.3167 64.5622L44.5693 66.0069C44.0099 66.3007 43.332 66.2521 42.8208 65.8805C42.3097 65.509 42.0537 64.8796 42.1603 64.2567L42.685 61.1971L40.4623 59.0302C40.0097 58.5893 39.847 57.9295 40.0422 57.3286C40.2376 56.7276 40.7571 56.2895 41.3823 56.1985L44.4541 55.7523L45.8277 52.9683C46.1075 52.4017 46.6845 52.043 47.3166 52.043C47.9484 52.043 48.5255 52.4017 48.8052 52.9683L50.1793 55.7523L53.2514 56.1985C53.8768 56.2895 54.3963 56.7276 54.5915 57.3286C54.7868 57.9295 54.6239 58.5893 54.1715 59.0304L51.9486 61.1971L52.4732 64.2567C52.5799 64.8796 52.3239 65.509 51.8126 65.8804C51.5237 66.0905 51.1811 66.1975 50.8369 66.1975ZM47.3167 61.0264C47.5822 61.0264 47.8475 61.09 48.0892 61.217L48.6322 61.5025L48.5285 60.8981C48.4362 60.3595 48.6148 59.81 49.0059 59.4285L49.4452 59.0007L48.8383 58.9125C48.2975 58.8338 47.8302 58.4942 47.5885 58.0043L47.3169 57.4542L47.0455 58.0043C46.8036 58.4942 46.3362 58.8338 45.7955 58.9125L45.1887 59.0007L45.6278 59.4287C46.019 59.81 46.1976 60.3594 46.1053 60.8981L46.0017 61.5024L46.5442 61.217C46.786 61.09 47.0513 61.0264 47.3167 61.0264Z" fill="#BBBABA"/>
<path d="M70.3213 66.1975C70.057 66.1975 69.7919 66.1344 69.549 66.0069L66.8011 64.5622L64.0537 66.0069C63.4941 66.3007 62.8165 66.2521 62.3052 65.8805C61.7941 65.5092 61.5381 64.8796 61.6446 64.2567L62.1694 61.1971L59.9466 59.0302C59.4941 58.5893 59.3314 57.9295 59.5266 57.3286C59.722 56.7276 60.2415 56.2895 60.8667 56.1985L63.9385 55.7523L65.3121 52.9683C65.5918 52.4017 66.1689 52.043 66.8009 52.043C67.4328 52.043 68.0098 52.4017 68.2896 52.9683L69.6637 55.7523L72.7358 56.1985C73.3612 56.2895 73.8807 56.7276 74.0759 57.3286C74.2711 57.9295 74.1083 58.5893 73.6559 59.0304L71.4329 61.1971L71.9575 64.2567C72.0643 64.8796 71.8083 65.509 71.297 65.8804C71.0079 66.0905 70.6654 66.1975 70.3213 66.1975ZM66.8011 61.0264C67.0665 61.0264 67.3318 61.09 67.5736 61.217L68.1166 61.5025L68.0128 60.8981C67.9205 60.3595 68.0992 59.81 68.4903 59.4285L68.9296 59.0007L68.3226 58.9125C67.7819 58.8338 67.3146 58.4942 67.0729 58.0043L66.8013 57.4542L66.5298 58.0043C66.2879 58.4942 65.8206 58.8338 65.2799 58.9125L64.6731 59.0007L65.1122 59.4287C65.5033 59.81 65.682 60.3594 65.5897 60.8981L65.4861 61.5024L66.0286 61.217C66.2702 61.09 66.5356 61.0264 66.8011 61.0264Z" fill="#BBBABA"/>
<path d="M24.3866 44.8965C24.0425 44.8965 23.7 44.7896 23.4106 44.5794C22.8995 44.208 22.6433 43.5786 22.7502 42.9558L24.6863 31.6677L16.4858 23.6735C16.0332 23.2326 15.8704 22.5727 16.0658 21.9719C16.261 21.3709 16.7806 20.9328 17.406 20.8418L28.7391 19.1951L33.8073 8.92537C34.0871 8.35876 34.6642 8 35.296 8C35.9279 8 36.5051 8.35876 36.7847 8.92537L41.8533 19.1949L53.1874 20.8418C53.8129 20.9328 54.3322 21.3709 54.5276 21.9719C54.7228 22.5729 54.56 23.2326 54.1076 23.6737L45.9066 31.6677L47.8423 42.9558C47.9491 43.5786 47.6931 44.208 47.1817 44.5794C46.6704 44.9508 45.9926 44.9996 45.4334 44.7059L35.2958 39.3761L25.1589 44.7059C24.916 44.8334 24.6508 44.8965 24.3866 44.8965ZM35.296 35.8402C35.5615 35.8402 35.8268 35.9037 36.0685 36.0307L44.0012 40.2014L42.4865 31.3685C42.3942 30.83 42.5728 30.2805 42.9639 29.899L49.3813 23.6437L40.5122 22.355C39.9713 22.2763 39.504 21.9367 39.2621 21.4468L35.296 13.4109L31.3301 21.4468C31.0882 21.9367 30.6208 22.2763 30.0801 22.355L21.2121 23.6437L27.6289 29.8991C28.02 30.2805 28.1987 30.8298 28.1062 31.3685L26.5913 40.2012L34.5232 36.0307C34.7651 35.9037 35.0306 35.8402 35.296 35.8402Z" fill="#BBBABA"/>
</svg>
