<svg width="18" height="18" viewBox="0 0 18 18" fill="none" xmlns="http://www.w3.org/2000/svg">
<path d="M8.16517 0.0199746C6.05871 0.224253 4.12838 1.13294 2.63131 2.62629C1.23288 4.02454 0.376908 5.73273 0.0634051 7.76847C-0.021135 8.33552 -0.021135 9.66685 0.0634051 10.2339C0.376908 12.2661 1.22583 13.9637 2.62427 15.369C4.0227 16.7673 5.73112 17.6231 7.76712 17.9366C8.33425 18.0211 9.66575 18.0211 10.2329 17.9366C12.2654 17.6231 13.9632 16.7743 15.3687 15.3761C16.7671 13.9778 17.6231 12.2696 17.9366 10.2339C18.0211 9.66685 18.0211 8.33552 17.9366 7.76847C17.6231 5.73625 16.7742 4.03862 15.3757 2.63333C13.9879 1.24212 12.2583 0.375701 10.2681 0.0728053C9.82779 0.00588648 8.61957 -0.0222899 8.16517 0.0199746ZM10.1448 1.48162C11.7722 1.73521 13.2059 2.46427 14.3718 3.63007C15.5483 4.80643 16.2669 6.22934 16.5276 7.89174C16.5699 8.16646 16.5875 8.49049 16.5875 9.00118C16.5875 9.51188 16.5699 9.83591 16.5276 10.1106C16.2669 11.773 15.5483 13.1959 14.3718 14.3723C13.1953 15.5487 11.7722 16.2672 10.1096 16.5278C9.57769 16.6123 8.42231 16.6123 7.89041 16.5278C6.22779 16.2672 4.8047 15.5487 3.62818 14.3723C2.45166 13.1959 1.73307 11.773 1.47241 10.1106C1.38787 9.5788 1.38787 8.42357 1.47241 7.89174C1.73307 6.22934 2.45166 4.80643 3.62818 3.63007C4.92446 2.33396 6.4638 1.61546 8.38356 1.4147C8.66888 1.38653 9.80313 1.42879 10.1448 1.48162Z" fill="#27B76C"/>
<path d="M12.2061 5.99403C12.1286 6.02573 11.3008 6.82875 9.92702 8.20235L7.76772 10.3543L6.86244 9.45267C6.36225 8.95959 5.90432 8.5299 5.84796 8.4982C5.48514 8.31505 5.07653 8.44537 4.89688 8.80462C4.79121 9.01594 4.78416 9.20965 4.87927 9.40337C4.92154 9.49846 5.37947 9.97746 6.17203 10.7664C7.1372 11.7279 7.42604 11.9956 7.53524 12.0308C7.71489 12.0872 7.98612 12.0555 8.13054 11.9568C8.29962 11.8406 12.9317 7.21265 13.062 7.02951C13.1607 6.88863 13.1748 6.84284 13.1748 6.63504C13.1748 6.43076 13.1607 6.38145 13.0691 6.25114C12.8718 5.9729 12.509 5.86371 12.2061 5.99403Z" fill="#27B76C"/>
</svg>
