<svg width="18" height="18" viewBox="0 0 18 18" fill="none" xmlns="http://www.w3.org/2000/svg">
<path d="M7.85029 0.0491085C4.82656 0.454107 2.23142 2.31002 0.910264 5.00346C0.489537 5.86851 0.237888 6.64311 0.0766745 7.61039C-0.0255582 8.20806 -0.0255582 9.78087 0.0766745 10.3785C0.237888 11.3419 0.485605 12.1126 0.910264 12.9855C2.12919 15.4784 4.50413 17.2989 7.24082 17.8376C8.55019 18.0932 10.0168 18.046 11.3262 17.7039C13.3866 17.1652 15.274 15.8126 16.485 13.9999C18.1679 11.4834 18.4707 8.23165 17.2832 5.46744C16.0722 2.63638 13.5557 0.642844 10.5241 0.108089C9.89101 -0.00593989 8.47941 -0.0334641 7.85029 0.0491085ZM9.89494 1.29163C10.8072 1.40173 11.5621 1.62978 12.3918 2.03478C14.6566 3.14754 16.1665 5.15681 16.6423 7.6969C16.7288 8.15301 16.7603 9.36014 16.7013 9.84772C16.5912 10.7442 16.3592 11.5464 15.9856 12.3288C14.8375 14.751 12.5333 16.3867 9.83989 16.7052C9.34446 16.7641 8.14519 16.7288 7.69301 16.6462C5.99437 16.3277 4.60244 15.5885 3.4189 14.3774C2.80157 13.7444 2.43196 13.2135 2.03089 12.3957C1.48041 11.275 1.24449 10.2488 1.24449 8.99447C1.24449 7.73622 1.48434 6.70603 2.03089 5.59326C2.8173 3.99293 3.98511 2.82512 5.58937 2.03478C6.39151 1.64158 7.18184 1.40173 8.04689 1.29163C8.42436 1.24444 9.51353 1.24051 9.89494 1.29163Z" fill="#FF6767"/>
<path d="M4.96512 4.64592C4.8039 4.71669 4.63876 4.91723 4.6073 5.08237C4.54439 5.43232 4.49721 5.37727 6.37278 7.25285L8.11074 8.99473L6.37278 10.7327C4.49327 12.6201 4.54439 12.5571 4.61124 12.915C4.64662 13.1076 4.88254 13.3436 5.07521 13.3789C5.43303 13.4458 5.37012 13.4969 7.25749 11.6174L8.99544 9.87944L10.7373 11.6174C12.6208 13.4969 12.5579 13.4458 12.9157 13.3789C13.1083 13.3436 13.3443 13.1076 13.3797 12.915C13.4465 12.5571 13.4976 12.6201 11.6181 10.7327L9.88015 8.99473L11.6181 7.25285C13.4976 5.36941 13.4465 5.43232 13.3797 5.07451C13.3443 4.88184 13.1083 4.64592 12.9157 4.61053C12.5579 4.54368 12.6208 4.49257 10.7334 6.37207L8.99544 8.11003L7.27322 6.39173C6.32953 5.44805 5.5038 4.65378 5.44482 4.63019C5.29541 4.57514 5.1106 4.583 4.96512 4.64592Z" fill="#FF6767"/>
</svg>
