<svg width="52" height="51" viewBox="0 0 52 51" fill="none" xmlns="http://www.w3.org/2000/svg">
<path d="M7.24047 44.2595C9.72884 46.75 13.7366 46.75 21.75 46.75H30.25C38.2633 46.75 42.2711 46.75 44.7595 44.2595C47.25 41.7711 47.25 37.7634 47.25 29.75C47.25 27.2638 47.25 25.1643 47.1756 23.375M44.7595 15.2405C42.2711 12.75 38.2633 12.75 30.25 12.75H21.75C13.7366 12.75 9.72884 12.75 7.24047 15.2405C4.74997 17.7289 4.74997 21.7366 4.74997 29.75C4.74997 32.2363 4.74997 34.3358 4.82434 36.125M26 4.25C30.0077 4.25 32.0095 4.25 33.2547 5.49525C34.5 6.7405 34.5 8.74225 34.5 12.75M18.7452 5.49525C17.5 6.7405 17.5 8.74225 17.5 12.75" stroke="#8FA39A" stroke-width="3.1875" stroke-linecap="round"/>
<path d="M26 36.8326C28.3481 36.8326 30.25 35.2474 30.25 33.2924C30.25 31.3374 28.3481 29.75 26 29.75C23.6518 29.75 21.75 28.1648 21.75 26.2076C21.75 24.2526 23.6518 22.6674 26 22.6674M26 36.8326C23.6518 36.8326 21.75 35.2474 21.75 33.2924M26 36.8326V38.25M26 22.6674V21.25M26 22.6674C28.3481 22.6674 30.25 24.2526 30.25 26.2076" stroke="#8FA39A" stroke-width="3.1875" stroke-linecap="round"/>
</svg>
