<svg width="36" height="36" viewBox="0 0 36 36" fill="none" xmlns="http://www.w3.org/2000/svg">
<g clip-path="url(#clip0_97_261)">
<path d="M4 36C2.93913 36 1.92172 35.5786 1.17157 34.8284C0.421427 34.0783 -1.44514e-06 33.0609 -1.39876e-06 32L-1.74846e-07 4C-1.28474e-07 2.93913 0.421429 1.92172 1.17157 1.17157C1.92172 0.421426 2.93913 -1.44514e-06 4 -1.39876e-06L32 -1.74846e-07C33.0609 -1.28474e-07 34.0783 0.421427 34.8284 1.17157C35.5786 1.92172 36 2.93913 36 4L36 32C36 33.0609 35.5786 34.0783 34.8284 34.8284C34.0783 35.5786 33.0609 36 32 36L4 36Z" fill="#F1FFFA"/>
<path d="M8 22L17 22L17 29L30 18L17 7L17 14L8 14L8 22Z" fill="#27B76C"/>
</g>
<defs>
<clipPath id="clip0_97_261">
<rect width="36" height="36" fill="white" transform="translate(36) rotate(90)"/>
</clipPath>
</defs>
</svg>
